<?xml version="1.0" encoding="UTF-8" standalone="no"?>
<svg xmlns="http://www.w3.org/2000/svg" xmlns:xlink="http://www.w3.org/1999/xlink" width="101.309mm" height="25.400mm" viewBox="136.974243 -198.000000 101.309204 25.400024">
    <circle transform="matrix(1,0,0,-1,143.098557,-190.945557)" style="stroke:#000000;stroke-width:0.050000mm;fill:none" r="2.720914" cx="0" cy="0"/>
    <circle transform="matrix(1,0,0,-1,143.075912,-179.709808)" style="stroke:#000000;stroke-width:0.050000mm;fill:none" r="2.610853" cx="0" cy="0"/>
    <circle transform="matrix(1,0,0,-1,181.504547,-190.945557)" style="stroke:#000000;stroke-width:0.050000mm;fill:none" r="2.720914" cx="0" cy="0"/>
    <circle transform="matrix(1,0,0,-1,181.527176,-179.709808)" style="stroke:#000000;stroke-width:0.050000mm;fill:none" r="2.610853" cx="0" cy="0"/>
    <circle transform="matrix(1,0,0,-1,232.159134,-190.945557)" style="stroke:#000000;stroke-width:0.050000mm;fill:none" r="2.720914" cx="0" cy="0"/>
    <circle transform="matrix(1,0,0,-1,232.181778,-179.709808)" style="stroke:#000000;stroke-width:0.050000mm;fill:none" r="2.610853" cx="0" cy="0"/>
    <circle transform="matrix(1,0,0,-1,193.753143,-190.945557)" style="stroke:#000000;stroke-width:0.050000mm;fill:none" r="2.720914" cx="0" cy="0"/>
    <circle transform="matrix(1,0,0,-1,193.730499,-179.709808)" style="stroke:#000000;stroke-width:0.050000mm;fill:none" r="2.610853" cx="0" cy="0"/>
    <path transform="matrix(1,0,0,-1,-16.114105,129.503113)" style="stroke:#000000;stroke-width:0.050000mm;fill:none" d="M229.069977,303.546387L230.511978,302.103088L252.811508,302.103088L254.397552,303.54483L254.397552,326.059784L252.955811,327.503113L230.656281,327.503113L229.070251,326.061371L227.484222,327.503113L205.184677,327.503113L203.742691,326.059784L202.301224,327.503113L180.001678,327.503113L178.415649,326.061371L176.82962,327.503113L154.53009,327.503113L153.088348,326.059784L153.088348,303.54483L154.674377,302.103088L176.973923,302.103088L178.415909,303.546387L179.857376,302.103088L202.156921,302.103088L203.74295,303.54483L205.328979,302.103088L227.62851,302.103088L229.069977,303.546387z"/>
    <path transform="matrix(1,0,0,-1,-16.114105,129.503113)" style="stroke:#000000;stroke-width:0.050000mm;fill:none" d="M227.484222,327.503113L205.184677,327.503113L203.742691,326.059784L202.301224,327.503113L180.001678,327.503113"/>
    <path transform="matrix(1,0,0,-1,-16.114105,129.503113)" style="stroke:#000000;stroke-width:0.050000mm;fill:none" d="M230.511978,302.103088L252.811508,302.103088L254.397552,303.54483L254.397552,326.059784L252.955811,327.503113L230.656281,327.503113"/>
    <path transform="matrix(1,0,0,-1,-16.114105,129.503113)" style="stroke:#000000;stroke-width:0.050000mm;fill:none" d="M176.973923,302.103088L154.674377,302.103088L153.088348,303.54483L153.088348,326.059784L154.53009,327.503113L176.82962,327.503113"/>
</svg>
