<?xml version="1.0" encoding="UTF-8" standalone="no"?>
<!-- Created with Inkscape (http://www.inkscape.org/) -->

<svg
   width="210mm"
   height="297mm"
   viewBox="0 0 210 297"
   version="1.1"
   id="svg1236"
   xmlns="http://www.w3.org/2000/svg"
   xmlns:svg="http://www.w3.org/2000/svg">
  <defs
     id="defs1233" />
  <g
     id="layer1">
    <path
       style="fill:none;stroke:#020901;stroke-width:0.254"
       d="m -51.00972,48.630498 3.175,-1.5875 -3.175,-1.5875 0.007,-10.9274 h 10.92005 l 1.5875,3.175 1.5875,-3.175 276.44572,-1e-4 1.5875,3.1751 1.5875,-3.1751 10.92004,1e-4 0.007,10.9274 -3.175,1.5875 3.175,1.5875 -0.007,36.4367 H -51.00234 253.63347 l 0.007,138.394202 -3.175,1.5875 3.175,1.5875 -0.007,10.9275 h -10.92004 l -1.5875,-3.175 -1.5875,3.175 -276.44573,-1e-4 -1.5875,-3.175 -1.5875,3.175 -10.92004,1e-4 -0.007,-10.9275 3.175,-1.5875 -3.175,-1.5875 0.007,-138.394202 z"
       id="path1093" />
    <path
       style="fill:none;stroke:#020901;stroke-width:0.254"
       d="m 224.09506,402.8828 -10.92009,5e-5 -1.5875,-3.175 -1.5875,3.175 -225.62918,-0.0341 -1.5875,-3.175 -1.5875,3.175 -10.92006,2e-5 -0.007,-10.92745 3.175,-1.5875 -3.175,-1.5875 -0.0341,-111.31542 3.17501,-1.5875 -3.17501,-1.5875 0.007,-10.9274 10.92006,-1e-4 1.5875,3.1751 1.5875,-3.1751 225.66331,1e-4 1.5875,3.175 1.5875,-3.175 h 10.92007 l 0.007,10.9274 -3.175,1.5875 3.175,1.5875 v 111.34953 l -2.84676,1.75165 2.84676,1.42337 z"
       id="path1221" />
  </g>
</svg>
