999
"DXF R12 Output" (www.mydxf.blogspot.com)
 0 
SECTION
 2 
HEADER
 9 
$ACADVER
 1 
AC1009
 9 
$EXTMIN
 10 
 0 
 20 
 0 
 9 
$EXTMAX
 10 
 8.5 
 20 
 11 
 0 
ENDSEC
 0 
SECTION
 2 
ENTITIES
0
LINE
8
Layer 1
10
28.084100
20
42.198300
11
28.084100
21
42.198300
0
LINE
8
Layer 1
10
28.084100
20
42.198300
11
27.926932
21
41.419815
0
LINE
8
Layer 1
10
27.926932
20
41.419815
11
27.498321
21
40.784094
0
LINE
8
Layer 1
10
27.498321
20
40.784094
11
26.862604
21
40.355476
0
LINE
8
Layer 1
10
26.862604
20
40.355476
11
26.084120
21
40.198300
0
LINE
8
Layer 1
10
26.084120
20
40.198300
11
4.084170
21
40.198300
0
LINE
8
Layer 1
10
4.084170
20
40.198300
11
3.318800
21
40.350538
0
LINE
8
Layer 1
10
3.318800
20
40.350538
11
2.669950
21
40.784083
0
LINE
8
Layer 1
10
2.669950
20
40.784083
11
2.236402
21
41.432931
0
LINE
8
Layer 1
10
2.236402
20
41.432931
11
2.084160
21
42.198300
0
LINE
8
Layer 1
10
2.084160
20
42.198300
11
2.084160
21
42.198300
0
LINE
8
Layer 1
10
2.084160
20
42.198300
11
2.094214
21
63.398500
0
LINE
8
Layer 1
10
2.094214
20
63.398500
11
2.246456
21
64.163869
0
LINE
8
Layer 1
10
2.246456
20
64.163869
11
2.680004
21
64.812717
0
LINE
8
Layer 1
10
2.680004
20
64.812717
11
3.328854
21
65.246262
0
LINE
8
Layer 1
10
3.328854
20
65.246262
11
4.094224
21
65.398500
0
LINE
8
Layer 1
10
4.094224
20
65.398500
11
26.094200
21
65.398500
0
LINE
8
Layer 1
10
26.094200
20
65.398500
11
26.872684
21
65.241324
0
LINE
8
Layer 1
10
26.872684
20
65.241324
11
27.508401
21
64.812706
0
LINE
8
Layer 1
10
27.508401
20
64.812706
11
27.937012
21
64.176985
0
LINE
8
Layer 1
10
27.937012
20
64.176985
11
28.094180
21
63.398500
0
LINE
8
Layer 1
10
28.094180
20
63.398500
11
28.084100
21
42.198300
0
LINE
8
Layer 1
10
65.084100
20
42.198300
11
65.084100
21
42.198300
0
LINE
8
Layer 1
10
65.084100
20
42.198300
11
64.931858
21
41.432931
0
LINE
8
Layer 1
10
64.931858
20
41.432931
11
64.498310
21
40.784083
0
LINE
8
Layer 1
10
64.498310
20
40.784083
11
63.849460
21
40.350538
0
LINE
8
Layer 1
10
63.849460
20
40.350538
11
63.084090
21
40.198300
0
LINE
8
Layer 1
10
63.084090
20
40.198300
11
41.084100
21
40.198300
0
LINE
8
Layer 1
10
41.084100
20
40.198300
11
40.305616
21
40.355476
0
LINE
8
Layer 1
10
40.305616
20
40.355476
11
39.669899
21
40.784094
0
LINE
8
Layer 1
10
39.669899
20
40.784094
11
39.241288
21
41.419815
0
LINE
8
Layer 1
10
39.241288
20
41.419815
11
39.084120
21
42.198300
0
LINE
8
Layer 1
10
39.084120
20
42.198300
11
39.084100
21
42.198300
0
LINE
8
Layer 1
10
39.084100
20
42.198300
11
39.094154
21
63.398500
0
LINE
8
Layer 1
10
39.094154
20
63.398500
11
39.246396
21
64.163869
0
LINE
8
Layer 1
10
39.246396
20
64.163869
11
39.679944
21
64.812717
0
LINE
8
Layer 1
10
39.679944
20
64.812717
11
40.328794
21
65.246262
0
LINE
8
Layer 1
10
40.328794
20
65.246262
11
41.094164
21
65.398500
0
LINE
8
Layer 1
10
41.094164
20
65.398500
11
63.094200
21
65.398500
0
LINE
8
Layer 1
10
63.094200
20
65.398500
11
63.859570
21
65.246262
0
LINE
8
Layer 1
10
63.859570
20
65.246262
11
64.508420
21
64.812717
0
LINE
8
Layer 1
10
64.508420
20
64.812717
11
64.941968
21
64.163869
0
LINE
8
Layer 1
10
64.941968
20
64.163869
11
65.094210
21
63.398500
0
LINE
8
Layer 1
10
65.094210
20
63.398500
11
65.084100
21
42.198300
0
LINE
8
Layer 1
10
102.084000
20
42.198300
11
102.084000
21
42.198300
0
LINE
8
Layer 1
10
102.084000
20
42.198300
11
101.931758
21
41.432931
0
LINE
8
Layer 1
10
101.931758
20
41.432931
11
101.498210
21
40.784083
0
LINE
8
Layer 1
10
101.498210
20
40.784083
11
100.849360
21
40.350538
0
LINE
8
Layer 1
10
100.849360
20
40.350538
11
100.083990
21
40.198300
0
LINE
8
Layer 1
10
100.083990
20
40.198300
11
78.084100
21
40.198300
0
LINE
8
Layer 1
10
78.084100
20
40.198300
11
77.305616
21
40.355476
0
LINE
8
Layer 1
10
77.305616
20
40.355476
11
76.669899
21
40.784094
0
LINE
8
Layer 1
10
76.669899
20
40.784094
11
76.241288
21
41.419815
0
LINE
8
Layer 1
10
76.241288
20
41.419815
11
76.084120
21
42.198300
0
LINE
8
Layer 1
10
76.084120
20
42.198300
11
76.084100
21
42.198300
0
LINE
8
Layer 1
10
76.084100
20
42.198300
11
76.094154
21
63.398500
0
LINE
8
Layer 1
10
76.094154
20
63.398500
11
76.251322
21
64.176985
0
LINE
8
Layer 1
10
76.251322
20
64.176985
11
76.679934
21
64.812706
0
LINE
8
Layer 1
10
76.679934
20
64.812706
11
77.315650
21
65.241324
0
LINE
8
Layer 1
10
77.315650
20
65.241324
11
78.094134
21
65.398500
0
LINE
8
Layer 1
10
78.094134
20
65.398500
11
100.094000
21
65.398500
0
LINE
8
Layer 1
10
100.094000
20
65.398500
11
100.859370
21
65.246262
0
LINE
8
Layer 1
10
100.859370
20
65.246262
11
101.508220
21
64.812717
0
LINE
8
Layer 1
10
101.508220
20
64.812717
11
101.941768
21
64.163869
0
LINE
8
Layer 1
10
101.941768
20
64.163869
11
102.094010
21
63.398500
0
LINE
8
Layer 1
10
102.094010
20
63.398500
11
102.084000
21
42.198300
0
LINE
8
Layer 1
10
139.084000
20
42.198300
11
139.084000
21
42.198300
0
LINE
8
Layer 1
10
139.084000
20
42.198300
11
138.926832
21
41.419815
0
LINE
8
Layer 1
10
138.926832
20
41.419815
11
138.498221
21
40.784094
0
LINE
8
Layer 1
10
138.498221
20
40.784094
11
137.862504
21
40.355476
0
LINE
8
Layer 1
10
137.862504
20
40.355476
11
137.084020
21
40.198300
0
LINE
8
Layer 1
10
137.084020
20
40.198300
11
115.084000
21
40.198300
0
LINE
8
Layer 1
10
115.084000
20
40.198300
11
114.305516
21
40.355476
0
LINE
8
Layer 1
10
114.305516
20
40.355476
11
113.669799
21
40.784094
0
LINE
8
Layer 1
10
113.669799
20
40.784094
11
113.241188
21
41.419815
0
LINE
8
Layer 1
10
113.241188
20
41.419815
11
113.084020
21
42.198300
0
LINE
8
Layer 1
10
113.084020
20
42.198300
11
113.084000
21
42.198300
0
LINE
8
Layer 1
10
113.084000
20
42.198300
11
113.094054
21
63.398500
0
LINE
8
Layer 1
10
113.094054
20
63.398500
11
113.251222
21
64.176985
0
LINE
8
Layer 1
10
113.251222
20
64.176985
11
113.679834
21
64.812706
0
LINE
8
Layer 1
10
113.679834
20
64.812706
11
114.315550
21
65.241324
0
LINE
8
Layer 1
10
114.315550
20
65.241324
11
115.094034
21
65.398500
0
LINE
8
Layer 1
10
115.094034
20
65.398500
11
137.094000
21
65.398500
0
LINE
8
Layer 1
10
137.094000
20
65.398500
11
137.859370
21
65.246262
0
LINE
8
Layer 1
10
137.859370
20
65.246262
11
138.508220
21
64.812717
0
LINE
8
Layer 1
10
138.508220
20
64.812717
11
138.941768
21
64.163869
0
LINE
8
Layer 1
10
138.941768
20
64.163869
11
139.094010
21
63.398500
0
LINE
8
Layer 1
10
139.094010
20
63.398500
11
139.084000
21
42.198300
0
LINE
8
Layer 1
10
176.084000
20
42.198300
11
176.084000
21
42.198300
0
LINE
8
Layer 1
10
176.084000
20
42.198300
11
175.926832
21
41.419815
0
LINE
8
Layer 1
10
175.926832
20
41.419815
11
175.498221
21
40.784094
0
LINE
8
Layer 1
10
175.498221
20
40.784094
11
174.862504
21
40.355476
0
LINE
8
Layer 1
10
174.862504
20
40.355476
11
174.084020
21
40.198300
0
LINE
8
Layer 1
10
174.084020
20
40.198300
11
152.084000
21
40.198300
0
LINE
8
Layer 1
10
152.084000
20
40.198300
11
151.318630
21
40.350538
0
LINE
8
Layer 1
10
151.318630
20
40.350538
11
150.669780
21
40.784083
0
LINE
8
Layer 1
10
150.669780
20
40.784083
11
150.236232
21
41.432931
0
LINE
8
Layer 1
10
150.236232
20
41.432931
11
150.083990
21
42.198300
0
LINE
8
Layer 1
10
150.083990
20
42.198300
11
150.084000
21
42.198300
0
LINE
8
Layer 1
10
150.084000
20
42.198300
11
150.094054
21
63.398500
0
LINE
8
Layer 1
10
150.094054
20
63.398500
11
150.246296
21
64.163869
0
LINE
8
Layer 1
10
150.246296
20
64.163869
11
150.679844
21
64.812717
0
LINE
8
Layer 1
10
150.679844
20
64.812717
11
151.328694
21
65.246262
0
LINE
8
Layer 1
10
151.328694
20
65.246262
11
152.094064
21
65.398500
0
LINE
8
Layer 1
10
152.094064
20
65.398500
11
174.094000
21
65.398500
0
LINE
8
Layer 1
10
174.094000
20
65.398500
11
174.872484
21
65.241324
0
LINE
8
Layer 1
10
174.872484
20
65.241324
11
175.508201
21
64.812706
0
LINE
8
Layer 1
10
175.508201
20
64.812706
11
175.936812
21
64.176985
0
LINE
8
Layer 1
10
175.936812
20
64.176985
11
176.093980
21
63.398500
0
LINE
8
Layer 1
10
176.093980
20
63.398500
11
176.084000
21
42.198300
0
LINE
8
Layer 1
10
213.084000
20
42.198300
11
213.084000
21
42.198300
0
LINE
8
Layer 1
10
213.084000
20
42.198300
11
212.926832
21
41.419815
0
LINE
8
Layer 1
10
212.926832
20
41.419815
11
212.498221
21
40.784094
0
LINE
8
Layer 1
10
212.498221
20
40.784094
11
211.862504
21
40.355476
0
LINE
8
Layer 1
10
211.862504
20
40.355476
11
211.084020
21
40.198300
0
LINE
8
Layer 1
10
211.084020
20
40.198300
11
189.084000
21
40.198300
0
LINE
8
Layer 1
10
189.084000
20
40.198300
11
188.318630
21
40.350538
0
LINE
8
Layer 1
10
188.318630
20
40.350538
11
187.669780
21
40.784083
0
LINE
8
Layer 1
10
187.669780
20
40.784083
11
187.236232
21
41.432931
0
LINE
8
Layer 1
10
187.236232
20
41.432931
11
187.083990
21
42.198300
0
LINE
8
Layer 1
10
187.083990
20
42.198300
11
187.084000
21
42.198300
0
LINE
8
Layer 1
10
187.084000
20
42.198300
11
187.094054
21
63.398500
0
LINE
8
Layer 1
10
187.094054
20
63.398500
11
187.246296
21
64.163869
0
LINE
8
Layer 1
10
187.246296
20
64.163869
11
187.679844
21
64.812717
0
LINE
8
Layer 1
10
187.679844
20
64.812717
11
188.328694
21
65.246262
0
LINE
8
Layer 1
10
188.328694
20
65.246262
11
189.094064
21
65.398500
0
LINE
8
Layer 1
10
189.094064
20
65.398500
11
211.094000
21
65.398500
0
LINE
8
Layer 1
10
211.094000
20
65.398500
11
211.872484
21
65.241324
0
LINE
8
Layer 1
10
211.872484
20
65.241324
11
212.508201
21
64.812706
0
LINE
8
Layer 1
10
212.508201
20
64.812706
11
212.936812
21
64.176985
0
LINE
8
Layer 1
10
212.936812
20
64.176985
11
213.093980
21
63.398500
0
LINE
8
Layer 1
10
213.093980
20
63.398500
11
213.084000
21
42.198300
0
LINE
8
Layer 1
10
28.094100
20
92.798500
11
28.094100
21
92.798500
0
LINE
8
Layer 1
10
28.094100
20
92.798500
11
27.936932
21
92.020015
0
LINE
8
Layer 1
10
27.936932
20
92.020015
11
27.508321
21
91.384294
0
LINE
8
Layer 1
10
27.508321
20
91.384294
11
26.872604
21
90.955676
0
LINE
8
Layer 1
10
26.872604
20
90.955676
11
26.094120
21
90.798500
0
LINE
8
Layer 1
10
26.094120
20
90.798500
11
4.094170
21
90.798500
0
LINE
8
Layer 1
10
4.094170
20
90.798500
11
3.328800
21
90.950738
0
LINE
8
Layer 1
10
3.328800
20
90.950738
11
2.679950
21
91.384283
0
LINE
8
Layer 1
10
2.679950
20
91.384283
11
2.246402
21
92.033131
0
LINE
8
Layer 1
10
2.246402
20
92.033131
11
2.094160
21
92.798500
0
LINE
8
Layer 1
10
2.094160
20
92.798500
11
2.094160
21
92.798500
0
LINE
8
Layer 1
10
2.094160
20
92.798500
11
2.104214
21
113.998700
0
LINE
8
Layer 1
10
2.104214
20
113.998700
11
2.256456
21
114.764069
0
LINE
8
Layer 1
10
2.256456
20
114.764069
11
2.690004
21
115.412917
0
LINE
8
Layer 1
10
2.690004
20
115.412917
11
3.338854
21
115.846462
0
LINE
8
Layer 1
10
3.338854
20
115.846462
11
4.104224
21
115.998700
0
LINE
8
Layer 1
10
4.104224
20
115.998700
11
26.104200
21
115.999000
0
LINE
8
Layer 1
10
26.104200
20
115.999000
11
26.882684
21
115.841824
0
LINE
8
Layer 1
10
26.882684
20
115.841824
11
27.518401
21
115.413206
0
LINE
8
Layer 1
10
27.518401
20
115.413206
11
27.947012
21
114.777485
0
LINE
8
Layer 1
10
27.947012
20
114.777485
11
28.104180
21
113.999000
0
LINE
8
Layer 1
10
28.104180
20
113.999000
11
28.094100
21
92.798500
0
LINE
8
Layer 1
10
65.094100
20
92.798500
11
65.094100
21
92.798500
0
LINE
8
Layer 1
10
65.094100
20
92.798500
11
64.941858
21
92.033131
0
LINE
8
Layer 1
10
64.941858
20
92.033131
11
64.508310
21
91.384283
0
LINE
8
Layer 1
10
64.508310
20
91.384283
11
63.859460
21
90.950738
0
LINE
8
Layer 1
10
63.859460
20
90.950738
11
63.094090
21
90.798500
0
LINE
8
Layer 1
10
63.094090
20
90.798500
11
41.094100
21
90.798500
0
LINE
8
Layer 1
10
41.094100
20
90.798500
11
40.328730
21
90.950738
0
LINE
8
Layer 1
10
40.328730
20
90.950738
11
39.679880
21
91.384283
0
LINE
8
Layer 1
10
39.679880
20
91.384283
11
39.246332
21
92.033131
0
LINE
8
Layer 1
10
39.246332
20
92.033131
11
39.094090
21
92.798500
0
LINE
8
Layer 1
10
39.094090
20
92.798500
11
39.094100
21
92.798500
0
LINE
8
Layer 1
10
39.094100
20
92.798500
11
39.104154
21
113.998700
0
LINE
8
Layer 1
10
39.104154
20
113.998700
11
39.256396
21
114.764069
0
LINE
8
Layer 1
10
39.256396
20
114.764069
11
39.689944
21
115.412917
0
LINE
8
Layer 1
10
39.689944
20
115.412917
11
40.338794
21
115.846462
0
LINE
8
Layer 1
10
40.338794
20
115.846462
11
41.104164
21
115.998700
0
LINE
8
Layer 1
10
41.104164
20
115.998700
11
63.104100
21
115.999000
0
LINE
8
Layer 1
10
63.104100
20
115.999000
11
63.882584
21
115.841824
0
LINE
8
Layer 1
10
63.882584
20
115.841824
11
64.518301
21
115.413206
0
LINE
8
Layer 1
10
64.518301
20
115.413206
11
64.946912
21
114.777485
0
LINE
8
Layer 1
10
64.946912
20
114.777485
11
65.104080
21
113.999000
0
LINE
8
Layer 1
10
65.104080
20
113.999000
11
65.094100
21
92.798500
0
LINE
8
Layer 1
10
102.094000
20
92.798500
11
102.094000
21
92.798500
0
LINE
8
Layer 1
10
102.094000
20
92.798500
11
101.941758
21
92.033131
0
LINE
8
Layer 1
10
101.941758
20
92.033131
11
101.508210
21
91.384283
0
LINE
8
Layer 1
10
101.508210
20
91.384283
11
100.859360
21
90.950738
0
LINE
8
Layer 1
10
100.859360
20
90.950738
11
100.093990
21
90.798500
0
LINE
8
Layer 1
10
100.093990
20
90.798500
11
78.094100
21
90.798500
0
LINE
8
Layer 1
10
78.094100
20
90.798500
11
77.315616
21
90.955676
0
LINE
8
Layer 1
10
77.315616
20
90.955676
11
76.679899
21
91.384294
0
LINE
8
Layer 1
10
76.679899
20
91.384294
11
76.251288
21
92.020015
0
LINE
8
Layer 1
10
76.251288
20
92.020015
11
76.094120
21
92.798500
0
LINE
8
Layer 1
10
76.094120
20
92.798500
11
76.094100
21
92.798500
0
LINE
8
Layer 1
10
76.094100
20
92.798500
11
76.104154
21
113.998700
0
LINE
8
Layer 1
10
76.104154
20
113.998700
11
76.256396
21
114.764069
0
LINE
8
Layer 1
10
76.256396
20
114.764069
11
76.689944
21
115.412917
0
LINE
8
Layer 1
10
76.689944
20
115.412917
11
77.338794
21
115.846462
0
LINE
8
Layer 1
10
77.338794
20
115.846462
11
78.104164
21
115.998700
0
LINE
8
Layer 1
10
78.104164
20
115.998700
11
100.104000
21
115.999000
0
LINE
8
Layer 1
10
100.104000
20
115.999000
11
100.869370
21
115.846762
0
LINE
8
Layer 1
10
100.869370
20
115.846762
11
101.518220
21
115.413217
0
LINE
8
Layer 1
10
101.518220
20
115.413217
11
101.951768
21
114.764369
0
LINE
8
Layer 1
10
101.951768
20
114.764369
11
102.104010
21
113.999000
0
LINE
8
Layer 1
10
102.104010
20
113.999000
11
102.094000
21
92.798500
0
LINE
8
Layer 1
10
139.094000
20
92.798500
11
139.094000
21
92.798500
0
LINE
8
Layer 1
10
139.094000
20
92.798500
11
138.941758
21
92.033131
0
LINE
8
Layer 1
10
138.941758
20
92.033131
11
138.508210
21
91.384283
0
LINE
8
Layer 1
10
138.508210
20
91.384283
11
137.859360
21
90.950738
0
LINE
8
Layer 1
10
137.859360
20
90.950738
11
137.093990
21
90.798500
0
LINE
8
Layer 1
10
137.093990
20
90.798500
11
115.094000
21
90.798500
0
LINE
8
Layer 1
10
115.094000
20
90.798500
11
114.315516
21
90.955676
0
LINE
8
Layer 1
10
114.315516
20
90.955676
11
113.679799
21
91.384294
0
LINE
8
Layer 1
10
113.679799
20
91.384294
11
113.251188
21
92.020015
0
LINE
8
Layer 1
10
113.251188
20
92.020015
11
113.094020
21
92.798500
0
LINE
8
Layer 1
10
113.094020
20
92.798500
11
113.094000
21
92.798500
0
LINE
8
Layer 1
10
113.094000
20
92.798500
11
113.104054
21
113.998700
0
LINE
8
Layer 1
10
113.104054
20
113.998700
11
113.261222
21
114.777185
0
LINE
8
Layer 1
10
113.261222
20
114.777185
11
113.689834
21
115.412906
0
LINE
8
Layer 1
10
113.689834
20
115.412906
11
114.325550
21
115.841524
0
LINE
8
Layer 1
10
114.325550
20
115.841524
11
115.104034
21
115.998700
0
LINE
8
Layer 1
10
115.104034
20
115.998700
11
137.104000
21
115.999000
0
LINE
8
Layer 1
10
137.104000
20
115.999000
11
137.869370
21
115.846762
0
LINE
8
Layer 1
10
137.869370
20
115.846762
11
138.518220
21
115.413217
0
LINE
8
Layer 1
10
138.518220
20
115.413217
11
138.951768
21
114.764369
0
LINE
8
Layer 1
10
138.951768
20
114.764369
11
139.104010
21
113.999000
0
LINE
8
Layer 1
10
139.104010
20
113.999000
11
139.094000
21
92.798500
0
LINE
8
Layer 1
10
176.094000
20
92.798500
11
176.094000
21
92.798500
0
LINE
8
Layer 1
10
176.094000
20
92.798500
11
175.936832
21
92.020015
0
LINE
8
Layer 1
10
175.936832
20
92.020015
11
175.508221
21
91.384294
0
LINE
8
Layer 1
10
175.508221
20
91.384294
11
174.872504
21
90.955676
0
LINE
8
Layer 1
10
174.872504
20
90.955676
11
174.094020
21
90.798500
0
LINE
8
Layer 1
10
174.094020
20
90.798500
11
152.094000
21
90.798500
0
LINE
8
Layer 1
10
152.094000
20
90.798500
11
151.328630
21
90.950738
0
LINE
8
Layer 1
10
151.328630
20
90.950738
11
150.679780
21
91.384283
0
LINE
8
Layer 1
10
150.679780
20
91.384283
11
150.246232
21
92.033131
0
LINE
8
Layer 1
10
150.246232
20
92.033131
11
150.093990
21
92.798500
0
LINE
8
Layer 1
10
150.093990
20
92.798500
11
150.094000
21
92.798500
0
LINE
8
Layer 1
10
150.094000
20
92.798500
11
150.104054
21
113.998700
0
LINE
8
Layer 1
10
150.104054
20
113.998700
11
150.261222
21
114.777185
0
LINE
8
Layer 1
10
150.261222
20
114.777185
11
150.689834
21
115.412906
0
LINE
8
Layer 1
10
150.689834
20
115.412906
11
151.325550
21
115.841524
0
LINE
8
Layer 1
10
151.325550
20
115.841524
11
152.104034
21
115.998700
0
LINE
8
Layer 1
10
152.104034
20
115.998700
11
174.104000
21
115.999000
0
LINE
8
Layer 1
10
174.104000
20
115.999000
11
174.869370
21
115.846762
0
LINE
8
Layer 1
10
174.869370
20
115.846762
11
175.518220
21
115.413217
0
LINE
8
Layer 1
10
175.518220
20
115.413217
11
175.951768
21
114.764369
0
LINE
8
Layer 1
10
175.951768
20
114.764369
11
176.104010
21
113.999000
0
LINE
8
Layer 1
10
176.104010
20
113.999000
11
176.094000
21
92.798500
0
LINE
8
Layer 1
10
213.094000
20
92.798500
11
213.094000
21
92.798500
0
LINE
8
Layer 1
10
213.094000
20
92.798500
11
212.936832
21
92.020015
0
LINE
8
Layer 1
10
212.936832
20
92.020015
11
212.508221
21
91.384294
0
LINE
8
Layer 1
10
212.508221
20
91.384294
11
211.872504
21
90.955676
0
LINE
8
Layer 1
10
211.872504
20
90.955676
11
211.094020
21
90.798500
0
LINE
8
Layer 1
10
211.094020
20
90.798500
11
189.094000
21
90.798500
0
LINE
8
Layer 1
10
189.094000
20
90.798500
11
188.328630
21
90.950738
0
LINE
8
Layer 1
10
188.328630
20
90.950738
11
187.679780
21
91.384283
0
LINE
8
Layer 1
10
187.679780
20
91.384283
11
187.246232
21
92.033131
0
LINE
8
Layer 1
10
187.246232
20
92.033131
11
187.093990
21
92.798500
0
LINE
8
Layer 1
10
187.093990
20
92.798500
11
187.094000
21
92.798500
0
LINE
8
Layer 1
10
187.094000
20
92.798500
11
187.104054
21
113.998700
0
LINE
8
Layer 1
10
187.104054
20
113.998700
11
187.256296
21
114.764069
0
LINE
8
Layer 1
10
187.256296
20
114.764069
11
187.689844
21
115.412917
0
LINE
8
Layer 1
10
187.689844
20
115.412917
11
188.338694
21
115.846462
0
LINE
8
Layer 1
10
188.338694
20
115.846462
11
189.104064
21
115.998700
0
LINE
8
Layer 1
10
189.104064
20
115.998700
11
211.104000
21
115.999000
0
LINE
8
Layer 1
10
211.104000
20
115.999000
11
211.882484
21
115.841824
0
LINE
8
Layer 1
10
211.882484
20
115.841824
11
212.518201
21
115.413206
0
LINE
8
Layer 1
10
212.518201
20
115.413206
11
212.946812
21
114.777485
0
LINE
8
Layer 1
10
212.946812
20
114.777485
11
213.103980
21
113.999000
0
LINE
8
Layer 1
10
213.103980
20
113.999000
11
213.094000
21
92.798500
0
LINE
8
Layer 1
10
28.104100
20
143.399000
11
28.104100
21
143.399000
0
LINE
8
Layer 1
10
28.104100
20
143.399000
11
27.946932
21
142.620515
0
LINE
8
Layer 1
10
27.946932
20
142.620515
11
27.518321
21
141.984794
0
LINE
8
Layer 1
10
27.518321
20
141.984794
11
26.882604
21
141.556176
0
LINE
8
Layer 1
10
26.882604
20
141.556176
11
26.104120
21
141.399000
0
LINE
8
Layer 1
10
26.104120
20
141.399000
11
4.104170
21
141.399000
0
LINE
8
Layer 1
10
4.104170
20
141.399000
11
3.338800
21
141.551238
0
LINE
8
Layer 1
10
3.338800
20
141.551238
11
2.689950
21
141.984783
0
LINE
8
Layer 1
10
2.689950
20
141.984783
11
2.256402
21
142.633631
0
LINE
8
Layer 1
10
2.256402
20
142.633631
11
2.104160
21
143.399000
0
LINE
8
Layer 1
10
2.104160
20
143.399000
11
2.104160
21
143.399000
0
LINE
8
Layer 1
10
2.104160
20
143.399000
11
2.114214
21
164.599200
0
LINE
8
Layer 1
10
2.114214
20
164.599200
11
2.266456
21
165.364569
0
LINE
8
Layer 1
10
2.266456
20
165.364569
11
2.700004
21
166.013417
0
LINE
8
Layer 1
10
2.700004
20
166.013417
11
3.348854
21
166.446962
0
LINE
8
Layer 1
10
3.348854
20
166.446962
11
4.114224
21
166.599200
0
LINE
8
Layer 1
10
4.114224
20
166.599200
11
26.114200
21
166.599000
0
LINE
8
Layer 1
10
26.114200
20
166.599000
11
26.892684
21
166.441824
0
LINE
8
Layer 1
10
26.892684
20
166.441824
11
27.528401
21
166.013206
0
LINE
8
Layer 1
10
27.528401
20
166.013206
11
27.957012
21
165.377485
0
LINE
8
Layer 1
10
27.957012
20
165.377485
11
28.114180
21
164.599000
0
LINE
8
Layer 1
10
28.114180
20
164.599000
11
28.104100
21
143.399000
0
LINE
8
Layer 1
10
65.104100
20
143.399000
11
65.104100
21
143.399000
0
LINE
8
Layer 1
10
65.104100
20
143.399000
11
64.946932
21
142.620515
0
LINE
8
Layer 1
10
64.946932
20
142.620515
11
64.518321
21
141.984794
0
LINE
8
Layer 1
10
64.518321
20
141.984794
11
63.882604
21
141.556176
0
LINE
8
Layer 1
10
63.882604
20
141.556176
11
63.104120
21
141.399000
0
LINE
8
Layer 1
10
63.104120
20
141.399000
11
41.104100
21
141.399000
0
LINE
8
Layer 1
10
41.104100
20
141.399000
11
40.338730
21
141.551238
0
LINE
8
Layer 1
10
40.338730
20
141.551238
11
39.689880
21
141.984783
0
LINE
8
Layer 1
10
39.689880
20
141.984783
11
39.256332
21
142.633631
0
LINE
8
Layer 1
10
39.256332
20
142.633631
11
39.104090
21
143.399000
0
LINE
8
Layer 1
10
39.104090
20
143.399000
11
39.104100
21
143.399000
0
LINE
8
Layer 1
10
39.104100
20
143.399000
11
39.114154
21
164.599200
0
LINE
8
Layer 1
10
39.114154
20
164.599200
11
39.266396
21
165.364569
0
LINE
8
Layer 1
10
39.266396
20
165.364569
11
39.699944
21
166.013417
0
LINE
8
Layer 1
10
39.699944
20
166.013417
11
40.348794
21
166.446962
0
LINE
8
Layer 1
10
40.348794
20
166.446962
11
41.114164
21
166.599200
0
LINE
8
Layer 1
10
41.114164
20
166.599200
11
63.114100
21
166.599000
0
LINE
8
Layer 1
10
63.114100
20
166.599000
11
63.892584
21
166.441824
0
LINE
8
Layer 1
10
63.892584
20
166.441824
11
64.528301
21
166.013206
0
LINE
8
Layer 1
10
64.528301
20
166.013206
11
64.956912
21
165.377485
0
LINE
8
Layer 1
10
64.956912
20
165.377485
11
65.114080
21
164.599000
0
LINE
8
Layer 1
10
65.114080
20
164.599000
11
65.104100
21
143.399000
0
LINE
8
Layer 1
10
102.104000
20
143.399000
11
102.104000
21
143.399000
0
LINE
8
Layer 1
10
102.104000
20
143.399000
11
101.951758
21
142.633631
0
LINE
8
Layer 1
10
101.951758
20
142.633631
11
101.518210
21
141.984783
0
LINE
8
Layer 1
10
101.518210
20
141.984783
11
100.869360
21
141.551238
0
LINE
8
Layer 1
10
100.869360
20
141.551238
11
100.103990
21
141.399000
0
LINE
8
Layer 1
10
100.103990
20
141.399000
11
78.104100
21
141.399000
0
LINE
8
Layer 1
10
78.104100
20
141.399000
11
77.338730
21
141.551238
0
LINE
8
Layer 1
10
77.338730
20
141.551238
11
76.689880
21
141.984783
0
LINE
8
Layer 1
10
76.689880
20
141.984783
11
76.256332
21
142.633631
0
LINE
8
Layer 1
10
76.256332
20
142.633631
11
76.104090
21
143.399000
0
LINE
8
Layer 1
10
76.104090
20
143.399000
11
76.104100
21
143.399000
0
LINE
8
Layer 1
10
76.104100
20
143.399000
11
76.114154
21
164.599200
0
LINE
8
Layer 1
10
76.114154
20
164.599200
11
76.266396
21
165.364569
0
LINE
8
Layer 1
10
76.266396
20
165.364569
11
76.699944
21
166.013417
0
LINE
8
Layer 1
10
76.699944
20
166.013417
11
77.348794
21
166.446962
0
LINE
8
Layer 1
10
77.348794
20
166.446962
11
78.114164
21
166.599200
0
LINE
8
Layer 1
10
78.114164
20
166.599200
11
100.114000
21
166.599000
0
LINE
8
Layer 1
10
100.114000
20
166.599000
11
100.879370
21
166.446762
0
LINE
8
Layer 1
10
100.879370
20
166.446762
11
101.528220
21
166.013217
0
LINE
8
Layer 1
10
101.528220
20
166.013217
11
101.961768
21
165.364369
0
LINE
8
Layer 1
10
101.961768
20
165.364369
11
102.114010
21
164.599000
0
LINE
8
Layer 1
10
102.114010
20
164.599000
11
102.104000
21
143.399000
0
LINE
8
Layer 1
10
139.104000
20
143.399000
11
139.104000
21
143.399000
0
LINE
8
Layer 1
10
139.104000
20
143.399000
11
138.951758
21
142.633631
0
LINE
8
Layer 1
10
138.951758
20
142.633631
11
138.518210
21
141.984783
0
LINE
8
Layer 1
10
138.518210
20
141.984783
11
137.869360
21
141.551238
0
LINE
8
Layer 1
10
137.869360
20
141.551238
11
137.103990
21
141.399000
0
LINE
8
Layer 1
10
137.103990
20
141.399000
11
115.104000
21
141.399000
0
LINE
8
Layer 1
10
115.104000
20
141.399000
11
114.325516
21
141.556176
0
LINE
8
Layer 1
10
114.325516
20
141.556176
11
113.689799
21
141.984794
0
LINE
8
Layer 1
10
113.689799
20
141.984794
11
113.261188
21
142.620515
0
LINE
8
Layer 1
10
113.261188
20
142.620515
11
113.104020
21
143.399000
0
LINE
8
Layer 1
10
113.104020
20
143.399000
11
113.104000
21
143.399000
0
LINE
8
Layer 1
10
113.104000
20
143.399000
11
113.114054
21
164.599200
0
LINE
8
Layer 1
10
113.114054
20
164.599200
11
113.271222
21
165.377685
0
LINE
8
Layer 1
10
113.271222
20
165.377685
11
113.699834
21
166.013406
0
LINE
8
Layer 1
10
113.699834
20
166.013406
11
114.335550
21
166.442024
0
LINE
8
Layer 1
10
114.335550
20
166.442024
11
115.114034
21
166.599200
0
LINE
8
Layer 1
10
115.114034
20
166.599200
11
137.114000
21
166.599000
0
LINE
8
Layer 1
10
137.114000
20
166.599000
11
137.879370
21
166.446762
0
LINE
8
Layer 1
10
137.879370
20
166.446762
11
138.528220
21
166.013217
0
LINE
8
Layer 1
10
138.528220
20
166.013217
11
138.961768
21
165.364369
0
LINE
8
Layer 1
10
138.961768
20
165.364369
11
139.114010
21
164.599000
0
LINE
8
Layer 1
10
139.114010
20
164.599000
11
139.104000
21
143.399000
0
LINE
8
Layer 1
10
176.104000
20
143.399000
11
176.104000
21
143.399000
0
LINE
8
Layer 1
10
176.104000
20
143.399000
11
175.951758
21
142.633631
0
LINE
8
Layer 1
10
175.951758
20
142.633631
11
175.518210
21
141.984783
0
LINE
8
Layer 1
10
175.518210
20
141.984783
11
174.869360
21
141.551238
0
LINE
8
Layer 1
10
174.869360
20
141.551238
11
174.103990
21
141.399000
0
LINE
8
Layer 1
10
174.103990
20
141.399000
11
152.104000
21
141.399000
0
LINE
8
Layer 1
10
152.104000
20
141.399000
11
151.325516
21
141.556176
0
LINE
8
Layer 1
10
151.325516
20
141.556176
11
150.689799
21
141.984794
0
LINE
8
Layer 1
10
150.689799
20
141.984794
11
150.261188
21
142.620515
0
LINE
8
Layer 1
10
150.261188
20
142.620515
11
150.104020
21
143.399000
0
LINE
8
Layer 1
10
150.104020
20
143.399000
11
150.104000
21
143.399000
0
LINE
8
Layer 1
10
150.104000
20
143.399000
11
150.114054
21
164.599200
0
LINE
8
Layer 1
10
150.114054
20
164.599200
11
150.271222
21
165.377685
0
LINE
8
Layer 1
10
150.271222
20
165.377685
11
150.699834
21
166.013406
0
LINE
8
Layer 1
10
150.699834
20
166.013406
11
151.335550
21
166.442024
0
LINE
8
Layer 1
10
151.335550
20
166.442024
11
152.114034
21
166.599200
0
LINE
8
Layer 1
10
152.114034
20
166.599200
11
174.114000
21
166.599000
0
LINE
8
Layer 1
10
174.114000
20
166.599000
11
174.879370
21
166.446762
0
LINE
8
Layer 1
10
174.879370
20
166.446762
11
175.528220
21
166.013217
0
LINE
8
Layer 1
10
175.528220
20
166.013217
11
175.961768
21
165.364369
0
LINE
8
Layer 1
10
175.961768
20
165.364369
11
176.114010
21
164.599000
0
LINE
8
Layer 1
10
176.114010
20
164.599000
11
176.104000
21
143.399000
0
LINE
8
Layer 1
10
213.104000
20
143.399000
11
213.104000
21
143.399000
0
LINE
8
Layer 1
10
213.104000
20
143.399000
11
212.946832
21
142.620515
0
LINE
8
Layer 1
10
212.946832
20
142.620515
11
212.518221
21
141.984794
0
LINE
8
Layer 1
10
212.518221
20
141.984794
11
211.882504
21
141.556176
0
LINE
8
Layer 1
10
211.882504
20
141.556176
11
211.104020
21
141.399000
0
LINE
8
Layer 1
10
211.104020
20
141.399000
11
189.104000
21
141.399000
0
LINE
8
Layer 1
10
189.104000
20
141.399000
11
188.338630
21
141.551238
0
LINE
8
Layer 1
10
188.338630
20
141.551238
11
187.689780
21
141.984783
0
LINE
8
Layer 1
10
187.689780
20
141.984783
11
187.256232
21
142.633631
0
LINE
8
Layer 1
10
187.256232
20
142.633631
11
187.103990
21
143.399000
0
LINE
8
Layer 1
10
187.103990
20
143.399000
11
187.104000
21
143.399000
0
LINE
8
Layer 1
10
187.104000
20
143.399000
11
187.114054
21
164.599200
0
LINE
8
Layer 1
10
187.114054
20
164.599200
11
187.266296
21
165.364569
0
LINE
8
Layer 1
10
187.266296
20
165.364569
11
187.699844
21
166.013417
0
LINE
8
Layer 1
10
187.699844
20
166.013417
11
188.348694
21
166.446962
0
LINE
8
Layer 1
10
188.348694
20
166.446962
11
189.114064
21
166.599200
0
LINE
8
Layer 1
10
189.114064
20
166.599200
11
211.114000
21
166.599000
0
LINE
8
Layer 1
10
211.114000
20
166.599000
11
211.892484
21
166.441824
0
LINE
8
Layer 1
10
211.892484
20
166.441824
11
212.528201
21
166.013206
0
LINE
8
Layer 1
10
212.528201
20
166.013206
11
212.956812
21
165.377485
0
LINE
8
Layer 1
10
212.956812
20
165.377485
11
213.113980
21
164.599000
0
LINE
8
Layer 1
10
213.113980
20
164.599000
11
213.104000
21
143.399000
0
LINE
8
Layer 1
10
28.114100
20
193.999000
11
28.114100
21
193.999000
0
LINE
8
Layer 1
10
28.114100
20
193.999000
11
27.956932
21
193.220515
0
LINE
8
Layer 1
10
27.956932
20
193.220515
11
27.528321
21
192.584794
0
LINE
8
Layer 1
10
27.528321
20
192.584794
11
26.892604
21
192.156176
0
LINE
8
Layer 1
10
26.892604
20
192.156176
11
26.114120
21
191.999000
0
LINE
8
Layer 1
10
26.114120
20
191.999000
11
4.114170
21
191.999000
0
LINE
8
Layer 1
10
4.114170
20
191.999000
11
3.348800
21
192.151238
0
LINE
8
Layer 1
10
3.348800
20
192.151238
11
2.699950
21
192.584783
0
LINE
8
Layer 1
10
2.699950
20
192.584783
11
2.266402
21
193.233631
0
LINE
8
Layer 1
10
2.266402
20
193.233631
11
2.114160
21
193.999000
0
LINE
8
Layer 1
10
2.114160
20
193.999000
11
2.114160
21
193.999000
0
LINE
8
Layer 1
10
2.114160
20
193.999000
11
2.124214
21
215.199200
0
LINE
8
Layer 1
10
2.124214
20
215.199200
11
2.281382
21
215.977685
0
LINE
8
Layer 1
10
2.281382
20
215.977685
11
2.709994
21
216.613406
0
LINE
8
Layer 1
10
2.709994
20
216.613406
11
3.345710
21
217.042024
0
LINE
8
Layer 1
10
3.345710
20
217.042024
11
4.124194
21
217.199200
0
LINE
8
Layer 1
10
4.124194
20
217.199200
11
26.124200
21
217.199000
0
LINE
8
Layer 1
10
26.124200
20
217.199000
11
26.889570
21
217.046762
0
LINE
8
Layer 1
10
26.889570
20
217.046762
11
27.538420
21
216.613217
0
LINE
8
Layer 1
10
27.538420
20
216.613217
11
27.971968
21
215.964369
0
LINE
8
Layer 1
10
27.971968
20
215.964369
11
28.124210
21
215.199000
0
LINE
8
Layer 1
10
28.124210
20
215.199000
11
28.114100
21
193.999000
0
LINE
8
Layer 1
10
65.114100
20
193.999000
11
65.114100
21
193.999000
0
LINE
8
Layer 1
10
65.114100
20
193.999000
11
64.956932
21
193.220515
0
LINE
8
Layer 1
10
64.956932
20
193.220515
11
64.528321
21
192.584794
0
LINE
8
Layer 1
10
64.528321
20
192.584794
11
63.892604
21
192.156176
0
LINE
8
Layer 1
10
63.892604
20
192.156176
11
63.114120
21
191.999000
0
LINE
8
Layer 1
10
63.114120
20
191.999000
11
41.114100
21
191.999000
0
LINE
8
Layer 1
10
41.114100
20
191.999000
11
40.348730
21
192.151238
0
LINE
8
Layer 1
10
40.348730
20
192.151238
11
39.699880
21
192.584783
0
LINE
8
Layer 1
10
39.699880
20
192.584783
11
39.266332
21
193.233631
0
LINE
8
Layer 1
10
39.266332
20
193.233631
11
39.114090
21
193.999000
0
LINE
8
Layer 1
10
39.114090
20
193.999000
11
39.114100
21
193.999000
0
LINE
8
Layer 1
10
39.114100
20
193.999000
11
39.124154
21
215.199200
0
LINE
8
Layer 1
10
39.124154
20
215.199200
11
39.276396
21
215.964569
0
LINE
8
Layer 1
10
39.276396
20
215.964569
11
39.709944
21
216.613417
0
LINE
8
Layer 1
10
39.709944
20
216.613417
11
40.358794
21
217.046962
0
LINE
8
Layer 1
10
40.358794
20
217.046962
11
41.124164
21
217.199200
0
LINE
8
Layer 1
10
41.124164
20
217.199200
11
63.124100
21
217.199000
0
LINE
8
Layer 1
10
63.124100
20
217.199000
11
63.902584
21
217.041824
0
LINE
8
Layer 1
10
63.902584
20
217.041824
11
64.538301
21
216.613206
0
LINE
8
Layer 1
10
64.538301
20
216.613206
11
64.966912
21
215.977485
0
LINE
8
Layer 1
10
64.966912
20
215.977485
11
65.124080
21
215.199000
0
LINE
8
Layer 1
10
65.124080
20
215.199000
11
65.114100
21
193.999000
0
LINE
8
Layer 1
10
102.114000
20
193.999000
11
102.114000
21
193.999000
0
LINE
8
Layer 1
10
102.114000
20
193.999000
11
101.961758
21
193.233631
0
LINE
8
Layer 1
10
101.961758
20
193.233631
11
101.528210
21
192.584783
0
LINE
8
Layer 1
10
101.528210
20
192.584783
11
100.879360
21
192.151238
0
LINE
8
Layer 1
10
100.879360
20
192.151238
11
100.113990
21
191.999000
0
LINE
8
Layer 1
10
100.113990
20
191.999000
11
78.114100
21
191.999000
0
LINE
8
Layer 1
10
78.114100
20
191.999000
11
77.348730
21
192.151238
0
LINE
8
Layer 1
10
77.348730
20
192.151238
11
76.699880
21
192.584783
0
LINE
8
Layer 1
10
76.699880
20
192.584783
11
76.266332
21
193.233631
0
LINE
8
Layer 1
10
76.266332
20
193.233631
11
76.114090
21
193.999000
0
LINE
8
Layer 1
10
76.114090
20
193.999000
11
76.114100
21
193.999000
0
LINE
8
Layer 1
10
76.114100
20
193.999000
11
76.124154
21
215.199200
0
LINE
8
Layer 1
10
76.124154
20
215.199200
11
76.276396
21
215.964569
0
LINE
8
Layer 1
10
76.276396
20
215.964569
11
76.709944
21
216.613417
0
LINE
8
Layer 1
10
76.709944
20
216.613417
11
77.358794
21
217.046962
0
LINE
8
Layer 1
10
77.358794
20
217.046962
11
78.124164
21
217.199200
0
LINE
8
Layer 1
10
78.124164
20
217.199200
11
100.124000
21
217.199000
0
LINE
8
Layer 1
10
100.124000
20
217.199000
11
100.902484
21
217.041824
0
LINE
8
Layer 1
10
100.902484
20
217.041824
11
101.538201
21
216.613206
0
LINE
8
Layer 1
10
101.538201
20
216.613206
11
101.966812
21
215.977485
0
LINE
8
Layer 1
10
101.966812
20
215.977485
11
102.123980
21
215.199000
0
LINE
8
Layer 1
10
102.123980
20
215.199000
11
102.114000
21
193.999000
0
LINE
8
Layer 1
10
139.114000
20
193.999000
11
139.114000
21
193.999000
0
LINE
8
Layer 1
10
139.114000
20
193.999000
11
138.961758
21
193.233631
0
LINE
8
Layer 1
10
138.961758
20
193.233631
11
138.528210
21
192.584783
0
LINE
8
Layer 1
10
138.528210
20
192.584783
11
137.879360
21
192.151238
0
LINE
8
Layer 1
10
137.879360
20
192.151238
11
137.113990
21
191.999000
0
LINE
8
Layer 1
10
137.113990
20
191.999000
11
115.114000
21
191.999000
0
LINE
8
Layer 1
10
115.114000
20
191.999000
11
114.335516
21
192.156176
0
LINE
8
Layer 1
10
114.335516
20
192.156176
11
113.699799
21
192.584794
0
LINE
8
Layer 1
10
113.699799
20
192.584794
11
113.271188
21
193.220515
0
LINE
8
Layer 1
10
113.271188
20
193.220515
11
113.114020
21
193.999000
0
LINE
8
Layer 1
10
113.114020
20
193.999000
11
113.114000
21
193.999000
0
LINE
8
Layer 1
10
113.114000
20
193.999000
11
113.124054
21
215.199200
0
LINE
8
Layer 1
10
113.124054
20
215.199200
11
113.276296
21
215.964569
0
LINE
8
Layer 1
10
113.276296
20
215.964569
11
113.709844
21
216.613417
0
LINE
8
Layer 1
10
113.709844
20
216.613417
11
114.358694
21
217.046962
0
LINE
8
Layer 1
10
114.358694
20
217.046962
11
115.124064
21
217.199200
0
LINE
8
Layer 1
10
115.124064
20
217.199200
11
137.124000
21
217.199000
0
LINE
8
Layer 1
10
137.124000
20
217.199000
11
137.889370
21
217.046762
0
LINE
8
Layer 1
10
137.889370
20
217.046762
11
138.538220
21
216.613217
0
LINE
8
Layer 1
10
138.538220
20
216.613217
11
138.971768
21
215.964369
0
LINE
8
Layer 1
10
138.971768
20
215.964369
11
139.124010
21
215.199000
0
LINE
8
Layer 1
10
139.124010
20
215.199000
11
139.114000
21
193.999000
0
LINE
8
Layer 1
10
176.114000
20
193.999000
11
176.114000
21
193.999000
0
LINE
8
Layer 1
10
176.114000
20
193.999000
11
175.961758
21
193.233631
0
LINE
8
Layer 1
10
175.961758
20
193.233631
11
175.528210
21
192.584783
0
LINE
8
Layer 1
10
175.528210
20
192.584783
11
174.879360
21
192.151238
0
LINE
8
Layer 1
10
174.879360
20
192.151238
11
174.113990
21
191.999000
0
LINE
8
Layer 1
10
174.113990
20
191.999000
11
152.114000
21
191.999000
0
LINE
8
Layer 1
10
152.114000
20
191.999000
11
151.335516
21
192.156176
0
LINE
8
Layer 1
10
151.335516
20
192.156176
11
150.699799
21
192.584794
0
LINE
8
Layer 1
10
150.699799
20
192.584794
11
150.271188
21
193.220515
0
LINE
8
Layer 1
10
150.271188
20
193.220515
11
150.114020
21
193.999000
0
LINE
8
Layer 1
10
150.114020
20
193.999000
11
150.114000
21
193.999000
0
LINE
8
Layer 1
10
150.114000
20
193.999000
11
150.124054
21
215.199200
0
LINE
8
Layer 1
10
150.124054
20
215.199200
11
150.281222
21
215.977685
0
LINE
8
Layer 1
10
150.281222
20
215.977685
11
150.709834
21
216.613406
0
LINE
8
Layer 1
10
150.709834
20
216.613406
11
151.345550
21
217.042024
0
LINE
8
Layer 1
10
151.345550
20
217.042024
11
152.124034
21
217.199200
0
LINE
8
Layer 1
10
152.124034
20
217.199200
11
174.124000
21
217.199000
0
LINE
8
Layer 1
10
174.124000
20
217.199000
11
174.889370
21
217.046762
0
LINE
8
Layer 1
10
174.889370
20
217.046762
11
175.538220
21
216.613217
0
LINE
8
Layer 1
10
175.538220
20
216.613217
11
175.971768
21
215.964369
0
LINE
8
Layer 1
10
175.971768
20
215.964369
11
176.124010
21
215.199000
0
LINE
8
Layer 1
10
176.124010
20
215.199000
11
176.114000
21
193.999000
0
LINE
8
Layer 1
10
213.114000
20
193.999000
11
213.114000
21
193.999000
0
LINE
8
Layer 1
10
213.114000
20
193.999000
11
212.956832
21
193.220515
0
LINE
8
Layer 1
10
212.956832
20
193.220515
11
212.528221
21
192.584794
0
LINE
8
Layer 1
10
212.528221
20
192.584794
11
211.892504
21
192.156176
0
LINE
8
Layer 1
10
211.892504
20
192.156176
11
211.114020
21
191.999000
0
LINE
8
Layer 1
10
211.114020
20
191.999000
11
189.114000
21
191.999000
0
LINE
8
Layer 1
10
189.114000
20
191.999000
11
188.348630
21
192.151238
0
LINE
8
Layer 1
10
188.348630
20
192.151238
11
187.699780
21
192.584783
0
LINE
8
Layer 1
10
187.699780
20
192.584783
11
187.266232
21
193.233631
0
LINE
8
Layer 1
10
187.266232
20
193.233631
11
187.113990
21
193.999000
0
LINE
8
Layer 1
10
187.113990
20
193.999000
11
187.114000
21
193.999000
0
LINE
8
Layer 1
10
187.114000
20
193.999000
11
187.124054
21
215.199200
0
LINE
8
Layer 1
10
187.124054
20
215.199200
11
187.281222
21
215.977685
0
LINE
8
Layer 1
10
187.281222
20
215.977685
11
187.709834
21
216.613406
0
LINE
8
Layer 1
10
187.709834
20
216.613406
11
188.345550
21
217.042024
0
LINE
8
Layer 1
10
188.345550
20
217.042024
11
189.124034
21
217.199200
0
LINE
8
Layer 1
10
189.124034
20
217.199200
11
211.124000
21
217.199000
0
LINE
8
Layer 1
10
211.124000
20
217.199000
11
211.889370
21
217.046762
0
LINE
8
Layer 1
10
211.889370
20
217.046762
11
212.538220
21
216.613217
0
LINE
8
Layer 1
10
212.538220
20
216.613217
11
212.971768
21
215.964369
0
LINE
8
Layer 1
10
212.971768
20
215.964369
11
213.124010
21
215.199000
0
LINE
8
Layer 1
10
213.124010
20
215.199000
11
213.114000
21
193.999000
0
LINE
8
Layer 1
10
65.124100
20
244.599000
11
65.124100
21
244.599000
0
LINE
8
Layer 1
10
65.124100
20
244.599000
11
64.966932
21
243.820515
0
LINE
8
Layer 1
10
64.966932
20
243.820515
11
64.538321
21
243.184794
0
LINE
8
Layer 1
10
64.538321
20
243.184794
11
63.902604
21
242.756176
0
LINE
8
Layer 1
10
63.902604
20
242.756176
11
63.124120
21
242.599000
0
LINE
8
Layer 1
10
63.124120
20
242.599000
11
41.124100
21
242.599000
0
LINE
8
Layer 1
10
41.124100
20
242.599000
11
40.358730
21
242.751238
0
LINE
8
Layer 1
10
40.358730
20
242.751238
11
39.709880
21
243.184783
0
LINE
8
Layer 1
10
39.709880
20
243.184783
11
39.276332
21
243.833631
0
LINE
8
Layer 1
10
39.276332
20
243.833631
11
39.124090
21
244.599000
0
LINE
8
Layer 1
10
39.124090
20
244.599000
11
39.124100
21
244.599000
0
LINE
8
Layer 1
10
39.124100
20
244.599000
11
39.134154
21
265.799200
0
LINE
8
Layer 1
10
39.134154
20
265.799200
11
39.291322
21
266.577685
0
LINE
8
Layer 1
10
39.291322
20
266.577685
11
39.719934
21
267.213406
0
LINE
8
Layer 1
10
39.719934
20
267.213406
11
40.355650
21
267.642024
0
LINE
8
Layer 1
10
40.355650
20
267.642024
11
41.134134
21
267.799200
0
LINE
8
Layer 1
10
41.134134
20
267.799200
11
63.134100
21
267.799000
0
LINE
8
Layer 1
10
63.134100
20
267.799000
11
63.912584
21
267.641824
0
LINE
8
Layer 1
10
63.912584
20
267.641824
11
64.548301
21
267.213206
0
LINE
8
Layer 1
10
64.548301
20
267.213206
11
64.976912
21
266.577485
0
LINE
8
Layer 1
10
64.976912
20
266.577485
11
65.134080
21
265.799000
0
LINE
8
Layer 1
10
65.134080
20
265.799000
11
65.124100
21
244.599000
0
LINE
8
Layer 1
10
102.124000
20
244.599000
11
102.124000
21
244.599000
0
LINE
8
Layer 1
10
102.124000
20
244.599000
11
101.966832
21
243.820515
0
LINE
8
Layer 1
10
101.966832
20
243.820515
11
101.538221
21
243.184794
0
LINE
8
Layer 1
10
101.538221
20
243.184794
11
100.902504
21
242.756176
0
LINE
8
Layer 1
10
100.902504
20
242.756176
11
100.124020
21
242.599000
0
LINE
8
Layer 1
10
100.124020
20
242.599000
11
78.124100
21
242.599000
0
LINE
8
Layer 1
10
78.124100
20
242.599000
11
77.358730
21
242.751238
0
LINE
8
Layer 1
10
77.358730
20
242.751238
11
76.709880
21
243.184783
0
LINE
8
Layer 1
10
76.709880
20
243.184783
11
76.276332
21
243.833631
0
LINE
8
Layer 1
10
76.276332
20
243.833631
11
76.124090
21
244.599000
0
LINE
8
Layer 1
10
76.124090
20
244.599000
11
76.124100
21
244.599000
0
LINE
8
Layer 1
10
76.124100
20
244.599000
11
76.134154
21
265.799200
0
LINE
8
Layer 1
10
76.134154
20
265.799200
11
76.286396
21
266.564569
0
LINE
8
Layer 1
10
76.286396
20
266.564569
11
76.719944
21
267.213417
0
LINE
8
Layer 1
10
76.719944
20
267.213417
11
77.368794
21
267.646962
0
LINE
8
Layer 1
10
77.368794
20
267.646962
11
78.134164
21
267.799200
0
LINE
8
Layer 1
10
78.134164
20
267.799200
11
100.134000
21
267.799000
0
LINE
8
Layer 1
10
100.134000
20
267.799000
11
100.912484
21
267.641824
0
LINE
8
Layer 1
10
100.912484
20
267.641824
11
101.548201
21
267.213206
0
LINE
8
Layer 1
10
101.548201
20
267.213206
11
101.976812
21
266.577485
0
LINE
8
Layer 1
10
101.976812
20
266.577485
11
102.133980
21
265.799000
0
LINE
8
Layer 1
10
102.133980
20
265.799000
11
102.124000
21
244.599000
0
LINE
8
Layer 1
10
139.124000
20
244.599000
11
139.124000
21
244.599000
0
LINE
8
Layer 1
10
139.124000
20
244.599000
11
138.971758
21
243.833631
0
LINE
8
Layer 1
10
138.971758
20
243.833631
11
138.538210
21
243.184783
0
LINE
8
Layer 1
10
138.538210
20
243.184783
11
137.889360
21
242.751238
0
LINE
8
Layer 1
10
137.889360
20
242.751238
11
137.123990
21
242.599000
0
LINE
8
Layer 1
10
137.123990
20
242.599000
11
115.124000
21
242.599000
0
LINE
8
Layer 1
10
115.124000
20
242.599000
11
114.358630
21
242.751238
0
LINE
8
Layer 1
10
114.358630
20
242.751238
11
113.709780
21
243.184783
0
LINE
8
Layer 1
10
113.709780
20
243.184783
11
113.276232
21
243.833631
0
LINE
8
Layer 1
10
113.276232
20
243.833631
11
113.123990
21
244.599000
0
LINE
8
Layer 1
10
113.123990
20
244.599000
11
113.124000
21
244.599000
0
LINE
8
Layer 1
10
113.124000
20
244.599000
11
113.134054
21
265.799200
0
LINE
8
Layer 1
10
113.134054
20
265.799200
11
113.286296
21
266.564569
0
LINE
8
Layer 1
10
113.286296
20
266.564569
11
113.719844
21
267.213417
0
LINE
8
Layer 1
10
113.719844
20
267.213417
11
114.368694
21
267.646962
0
LINE
8
Layer 1
10
114.368694
20
267.646962
11
115.134064
21
267.799200
0
LINE
8
Layer 1
10
115.134064
20
267.799200
11
137.134000
21
267.799000
0
LINE
8
Layer 1
10
137.134000
20
267.799000
11
137.899370
21
267.646762
0
LINE
8
Layer 1
10
137.899370
20
267.646762
11
138.548220
21
267.213217
0
LINE
8
Layer 1
10
138.548220
20
267.213217
11
138.981768
21
266.564369
0
LINE
8
Layer 1
10
138.981768
20
266.564369
11
139.134010
21
265.799000
0
LINE
8
Layer 1
10
139.134010
20
265.799000
11
139.124000
21
244.599000
0
LINE
8
Layer 1
10
176.124000
20
244.599000
11
176.124000
21
244.599000
0
LINE
8
Layer 1
10
176.124000
20
244.599000
11
175.971758
21
243.833631
0
LINE
8
Layer 1
10
175.971758
20
243.833631
11
175.538210
21
243.184783
0
LINE
8
Layer 1
10
175.538210
20
243.184783
11
174.889360
21
242.751238
0
LINE
8
Layer 1
10
174.889360
20
242.751238
11
174.123990
21
242.599000
0
LINE
8
Layer 1
10
174.123990
20
242.599000
11
152.124000
21
242.599000
0
LINE
8
Layer 1
10
152.124000
20
242.599000
11
151.345516
21
242.756176
0
LINE
8
Layer 1
10
151.345516
20
242.756176
11
150.709799
21
243.184794
0
LINE
8
Layer 1
10
150.709799
20
243.184794
11
150.281188
21
243.820515
0
LINE
8
Layer 1
10
150.281188
20
243.820515
11
150.124020
21
244.599000
0
LINE
8
Layer 1
10
150.124020
20
244.599000
11
150.124000
21
244.599000
0
LINE
8
Layer 1
10
150.124000
20
244.599000
11
150.134054
21
265.799200
0
LINE
8
Layer 1
10
150.134054
20
265.799200
11
150.291222
21
266.577685
0
LINE
8
Layer 1
10
150.291222
20
266.577685
11
150.719834
21
267.213406
0
LINE
8
Layer 1
10
150.719834
20
267.213406
11
151.355550
21
267.642024
0
LINE
8
Layer 1
10
151.355550
20
267.642024
11
152.134034
21
267.799200
0
LINE
8
Layer 1
10
152.134034
20
267.799200
11
174.134000
21
267.799000
0
LINE
8
Layer 1
10
174.134000
20
267.799000
11
174.899370
21
267.646762
0
LINE
8
Layer 1
10
174.899370
20
267.646762
11
175.548220
21
267.213217
0
LINE
8
Layer 1
10
175.548220
20
267.213217
11
175.981768
21
266.564369
0
LINE
8
Layer 1
10
175.981768
20
266.564369
11
176.134010
21
265.799000
0
LINE
8
Layer 1
10
176.134010
20
265.799000
11
176.124000
21
244.599000
0
LINE
8
Layer 1
10
223.852000
20
243.171000
11
223.820250
21
3.199000
0
LINE
8
Layer 1
10
223.942000
20
3.211680
11
-8.830000
21
3.206388
0
LINE
8
Layer 1
10
-8.711330
20
3.079390
11
-8.676934
21
243.198390
0
LINE
8
Layer 1
10
223.897000
20
243.113000
11
176.274700
21
304.357900
0
LINE
8
Layer 1
10
-8.687520
20
243.131000
11
38.831580
21
304.539800
0
LINE
8
Layer 1
10
38.733700
20
304.495000
11
176.374700
21
304.317174
0
LINE
8
Layer 1
10
28.221000
20
242.775000
11
28.221000
21
242.775000
0
LINE
8
Layer 1
10
28.221000
20
242.775000
11
27.631618
21
242.556381
0
LINE
8
Layer 1
10
27.631618
20
242.556381
11
26.208710
21
242.465824
0
LINE
8
Layer 1
10
26.208710
20
242.465824
11
4.073270
21
242.466000
0
LINE
8
Layer 1
10
4.073270
20
242.466000
11
2.650310
21
242.556553
0
LINE
8
Layer 1
10
2.650310
20
242.556553
11
2.060900
21
242.775176
0
LINE
8
Layer 1
10
2.060900
20
242.775176
11
2.060900
21
242.775000
0
LINE
8
Layer 1
10
2.060900
20
242.775000
11
2.070954
21
246.052300
0
LINE
8
Layer 1
10
2.070954
20
246.052300
11
2.660336
21
246.270919
0
LINE
8
Layer 1
10
2.660336
20
246.270919
11
4.083244
21
246.361476
0
LINE
8
Layer 1
10
4.083244
20
246.361476
11
26.218700
21
246.362000
0
LINE
8
Layer 1
10
26.218700
20
246.362000
11
27.641660
21
246.271447
0
LINE
8
Layer 1
10
27.641660
20
246.271447
11
28.231070
21
246.052824
0
LINE
8
Layer 1
10
28.231070
20
246.052824
11
28.221000
21
242.775000
0
LINE
8
Layer 1
10
213.193000
20
242.859000
11
213.193000
21
242.859000
0
LINE
8
Layer 1
10
213.193000
20
242.859000
11
212.603618
21
242.640381
0
LINE
8
Layer 1
10
212.603618
20
242.640381
11
211.180710
21
242.549824
0
LINE
8
Layer 1
10
211.180710
20
242.549824
11
189.045000
21
242.550000
0
LINE
8
Layer 1
10
189.045000
20
242.550000
11
187.622040
21
242.640553
0
LINE
8
Layer 1
10
187.622040
20
242.640553
11
187.032630
21
242.859176
0
LINE
8
Layer 1
10
187.032630
20
242.859176
11
187.033000
21
242.859000
0
LINE
8
Layer 1
10
187.033000
20
242.859000
11
187.043054
21
246.136300
0
LINE
8
Layer 1
10
187.043054
20
246.136300
11
187.632436
21
246.354919
0
LINE
8
Layer 1
10
187.632436
20
246.354919
11
189.055344
21
246.445476
0
LINE
8
Layer 1
10
189.055344
20
246.445476
11
211.191000
21
246.445000
0
LINE
8
Layer 1
10
211.191000
20
246.445000
11
212.613960
21
246.354447
0
LINE
8
Layer 1
10
212.613960
20
246.354447
11
213.203370
21
246.135824
0
LINE
8
Layer 1
10
213.203370
20
246.135824
11
213.193000
21
242.859000
0
LINE
8
Layer 1
10
176.142000
20
293.518000
11
176.142000
21
293.518000
0
LINE
8
Layer 1
10
176.142000
20
293.518000
11
175.552618
21
293.299381
0
LINE
8
Layer 1
10
175.552618
20
293.299381
11
174.129710
21
293.208824
0
LINE
8
Layer 1
10
174.129710
20
293.208824
11
151.995000
21
293.209000
0
LINE
8
Layer 1
10
151.995000
20
293.209000
11
150.572040
21
293.299553
0
LINE
8
Layer 1
10
150.572040
20
293.299553
11
149.982630
21
293.518176
0
LINE
8
Layer 1
10
149.982630
20
293.518176
11
149.982000
21
293.518000
0
LINE
8
Layer 1
10
149.982000
20
293.518000
11
149.992054
21
296.795300
0
LINE
8
Layer 1
10
149.992054
20
296.795300
11
150.581436
21
297.013919
0
LINE
8
Layer 1
10
150.581436
20
297.013919
11
152.004344
21
297.104476
0
LINE
8
Layer 1
10
152.004344
20
297.104476
11
174.140000
21
297.104000
0
LINE
8
Layer 1
10
174.140000
20
297.104000
11
175.562960
21
297.013447
0
LINE
8
Layer 1
10
175.562960
20
297.013447
11
176.152370
21
296.794824
0
LINE
8
Layer 1
10
176.152370
20
296.794824
11
176.142000
21
293.518000
0
LINE
8
Layer 1
10
139.198000
20
293.518000
11
139.198000
21
293.518000
0
LINE
8
Layer 1
10
139.198000
20
293.518000
11
138.608618
21
293.299381
0
LINE
8
Layer 1
10
138.608618
20
293.299381
11
137.185710
21
293.208824
0
LINE
8
Layer 1
10
137.185710
20
293.208824
11
115.050000
21
293.209000
0
LINE
8
Layer 1
10
115.050000
20
293.209000
11
113.627040
21
293.299553
0
LINE
8
Layer 1
10
113.627040
20
293.299553
11
113.037630
21
293.518176
0
LINE
8
Layer 1
10
113.037630
20
293.518176
11
113.038000
21
293.518000
0
LINE
8
Layer 1
10
113.038000
20
293.518000
11
113.048054
21
296.795300
0
LINE
8
Layer 1
10
113.048054
20
296.795300
11
113.637436
21
297.013919
0
LINE
8
Layer 1
10
113.637436
20
297.013919
11
115.060344
21
297.104476
0
LINE
8
Layer 1
10
115.060344
20
297.104476
11
137.196000
21
297.104000
0
LINE
8
Layer 1
10
137.196000
20
297.104000
11
138.618960
21
297.013447
0
LINE
8
Layer 1
10
138.618960
20
297.013447
11
139.208370
21
296.794824
0
LINE
8
Layer 1
10
139.208370
20
296.794824
11
139.198000
21
293.518000
0
LINE
8
Layer 1
10
102.236000
20
293.436000
11
102.236000
21
293.436000
0
LINE
8
Layer 1
10
102.236000
20
293.436000
11
101.646618
21
293.217381
0
LINE
8
Layer 1
10
101.646618
20
293.217381
11
100.223710
21
293.126824
0
LINE
8
Layer 1
10
100.223710
20
293.126824
11
78.088200
21
293.127000
0
LINE
8
Layer 1
10
78.088200
20
293.127000
11
76.665240
21
293.217553
0
LINE
8
Layer 1
10
76.665240
20
293.217553
11
76.075830
21
293.436176
0
LINE
8
Layer 1
10
76.075830
20
293.436176
11
76.075800
21
293.436000
0
LINE
8
Layer 1
10
76.075800
20
293.436000
11
76.085854
21
296.713300
0
LINE
8
Layer 1
10
76.085854
20
296.713300
11
76.675236
21
296.931919
0
LINE
8
Layer 1
10
76.675236
20
296.931919
11
78.098144
21
297.022476
0
LINE
8
Layer 1
10
78.098144
20
297.022476
11
100.234000
21
297.023000
0
LINE
8
Layer 1
10
100.234000
20
297.023000
11
101.656960
21
296.932447
0
LINE
8
Layer 1
10
101.656960
20
296.932447
11
102.246370
21
296.713824
0
LINE
8
Layer 1
10
102.246370
20
296.713824
11
102.236000
21
293.436000
0
LINE
8
Layer 1
10
65.225800
20
293.476000
11
65.225800
21
293.476000
0
LINE
8
Layer 1
10
65.225800
20
293.476000
11
64.636418
21
293.257381
0
LINE
8
Layer 1
10
64.636418
20
293.257381
11
63.213510
21
293.166824
0
LINE
8
Layer 1
10
63.213510
20
293.166824
11
41.078000
21
293.167000
0
LINE
8
Layer 1
10
41.078000
20
293.167000
11
39.655040
21
293.257553
0
LINE
8
Layer 1
10
39.655040
20
293.257553
11
39.065630
21
293.476176
0
LINE
8
Layer 1
10
39.065630
20
293.476176
11
39.065600
21
293.476000
0
LINE
8
Layer 1
10
39.065600
20
293.476000
11
39.075654
21
296.753300
0
LINE
8
Layer 1
10
39.075654
20
296.753300
11
39.665036
21
296.971919
0
LINE
8
Layer 1
10
39.665036
20
296.971919
11
41.087944
21
297.062476
0
LINE
8
Layer 1
10
41.087944
20
297.062476
11
63.223500
21
297.063000
0
LINE
8
Layer 1
10
63.223500
20
297.063000
11
64.646460
21
296.972447
0
LINE
8
Layer 1
10
64.646460
20
296.972447
11
65.235870
21
296.753824
0
LINE
8
Layer 1
10
65.235870
20
296.753824
11
65.225800
21
293.476000
0
LINE
8
Layer 1
10
176.129000
20
8.949040
11
176.129000
21
8.949040
0
LINE
8
Layer 1
10
176.129000
20
8.949040
11
175.539618
21
8.730421
0
LINE
8
Layer 1
10
175.539618
20
8.730421
11
174.116710
21
8.639864
0
LINE
8
Layer 1
10
174.116710
20
8.639864
11
151.981000
21
8.639860
0
LINE
8
Layer 1
10
151.981000
20
8.639860
11
150.558040
21
8.730413
0
LINE
8
Layer 1
10
150.558040
20
8.730413
11
149.968630
21
8.949036
0
LINE
8
Layer 1
10
149.968630
20
8.949036
11
149.969000
21
8.949040
0
LINE
8
Layer 1
10
149.969000
20
8.949040
11
149.979054
21
12.226340
0
LINE
8
Layer 1
10
149.979054
20
12.226340
11
150.568436
21
12.444959
0
LINE
8
Layer 1
10
150.568436
20
12.444959
11
151.991344
21
12.535516
0
LINE
8
Layer 1
10
151.991344
20
12.535516
11
174.127000
21
12.535500
0
LINE
8
Layer 1
10
174.127000
20
12.535500
11
175.549960
21
12.444947
0
LINE
8
Layer 1
10
175.549960
20
12.444947
11
176.139370
21
12.226324
0
LINE
8
Layer 1
10
176.139370
20
12.226324
11
176.129000
21
8.949040
0
LINE
8
Layer 1
10
213.142000
20
8.874610
11
213.142000
21
8.874610
0
LINE
8
Layer 1
10
213.142000
20
8.874610
11
212.552618
21
8.655991
0
LINE
8
Layer 1
10
212.552618
20
8.655991
11
211.129710
21
8.565434
0
LINE
8
Layer 1
10
211.129710
20
8.565434
11
188.994000
21
8.565440
0
LINE
8
Layer 1
10
188.994000
20
8.565440
11
187.571040
21
8.655993
0
LINE
8
Layer 1
10
187.571040
20
8.655993
11
186.981630
21
8.874616
0
LINE
8
Layer 1
10
186.981630
20
8.874616
11
186.982000
21
8.874610
0
LINE
8
Layer 1
10
186.982000
20
8.874610
11
186.992054
21
12.151910
0
LINE
8
Layer 1
10
186.992054
20
12.151910
11
187.581436
21
12.370529
0
LINE
8
Layer 1
10
187.581436
20
12.370529
11
189.004344
21
12.461086
0
LINE
8
Layer 1
10
189.004344
20
12.461086
11
211.140000
21
12.461100
0
LINE
8
Layer 1
10
211.140000
20
12.461100
11
212.562960
21
12.370547
0
LINE
8
Layer 1
10
212.562960
20
12.370547
11
213.152370
21
12.151924
0
LINE
8
Layer 1
10
213.152370
20
12.151924
11
213.142000
21
8.874610
0
LINE
8
Layer 1
10
139.185000
20
8.949040
11
139.185000
21
8.949040
0
LINE
8
Layer 1
10
139.185000
20
8.949040
11
138.595618
21
8.730421
0
LINE
8
Layer 1
10
138.595618
20
8.730421
11
137.172710
21
8.639864
0
LINE
8
Layer 1
10
137.172710
20
8.639864
11
115.037000
21
8.639860
0
LINE
8
Layer 1
10
115.037000
20
8.639860
11
113.614040
21
8.730413
0
LINE
8
Layer 1
10
113.614040
20
8.730413
11
113.024630
21
8.949036
0
LINE
8
Layer 1
10
113.024630
20
8.949036
11
113.025000
21
8.949040
0
LINE
8
Layer 1
10
113.025000
20
8.949040
11
113.035054
21
12.226340
0
LINE
8
Layer 1
10
113.035054
20
12.226340
11
113.624436
21
12.444959
0
LINE
8
Layer 1
10
113.624436
20
12.444959
11
115.047344
21
12.535516
0
LINE
8
Layer 1
10
115.047344
20
12.535516
11
137.182000
21
12.535500
0
LINE
8
Layer 1
10
137.182000
20
12.535500
11
138.604960
21
12.444947
0
LINE
8
Layer 1
10
138.604960
20
12.444947
11
139.194370
21
12.226324
0
LINE
8
Layer 1
10
139.194370
20
12.226324
11
139.185000
21
8.949040
0
LINE
8
Layer 1
10
102.223000
20
8.867700
11
102.223000
21
8.867700
0
LINE
8
Layer 1
10
102.223000
20
8.867700
11
101.633618
21
8.649081
0
LINE
8
Layer 1
10
101.633618
20
8.649081
11
100.210710
21
8.558524
0
LINE
8
Layer 1
10
100.210710
20
8.558524
11
78.074700
21
8.558520
0
LINE
8
Layer 1
10
78.074700
20
8.558520
11
76.651740
21
8.649073
0
LINE
8
Layer 1
10
76.651740
20
8.649073
11
76.062330
21
8.867696
0
LINE
8
Layer 1
10
76.062330
20
8.867696
11
76.062400
21
8.867700
0
LINE
8
Layer 1
10
76.062400
20
8.867700
11
76.072454
21
12.145000
0
LINE
8
Layer 1
10
76.072454
20
12.145000
11
76.661836
21
12.363619
0
LINE
8
Layer 1
10
76.661836
20
12.363619
11
78.084744
21
12.454176
0
LINE
8
Layer 1
10
78.084744
20
12.454176
11
100.220000
21
12.454200
0
LINE
8
Layer 1
10
100.220000
20
12.454200
11
101.642960
21
12.363647
0
LINE
8
Layer 1
10
101.642960
20
12.363647
11
102.232370
21
12.145024
0
LINE
8
Layer 1
10
102.232370
20
12.145024
11
102.223000
21
8.867700
0
LINE
8
Layer 1
10
65.212300
20
8.907500
11
65.212300
21
8.907500
0
LINE
8
Layer 1
10
65.212300
20
8.907500
11
64.622918
21
8.688881
0
LINE
8
Layer 1
10
64.622918
20
8.688881
11
63.200010
21
8.598324
0
LINE
8
Layer 1
10
63.200010
20
8.598324
11
41.064500
21
8.598320
0
LINE
8
Layer 1
10
41.064500
20
8.598320
11
39.641540
21
8.688873
0
LINE
8
Layer 1
10
39.641540
20
8.688873
11
39.052130
21
8.907496
0
LINE
8
Layer 1
10
39.052130
20
8.907496
11
39.052200
21
8.907500
0
LINE
8
Layer 1
10
39.052200
20
8.907500
11
39.062254
21
12.184800
0
LINE
8
Layer 1
10
39.062254
20
12.184800
11
39.651636
21
12.403419
0
LINE
8
Layer 1
10
39.651636
20
12.403419
11
41.074544
21
12.493976
0
LINE
8
Layer 1
10
41.074544
20
12.493976
11
63.210000
21
12.494000
0
LINE
8
Layer 1
10
63.210000
20
12.494000
11
64.632960
21
12.403447
0
LINE
8
Layer 1
10
64.632960
20
12.403447
11
65.222370
21
12.184824
0
LINE
8
Layer 1
10
65.222370
20
12.184824
11
65.212300
21
8.907500
0
LINE
8
Layer 1
10
28.112100
20
9.007160
11
28.112100
21
9.007160
0
LINE
8
Layer 1
10
28.112100
20
9.007160
11
27.522718
21
8.788541
0
LINE
8
Layer 1
10
27.522718
20
8.788541
11
26.099810
21
8.697984
0
LINE
8
Layer 1
10
26.099810
20
8.697984
11
3.964290
21
8.697980
0
LINE
8
Layer 1
10
3.964290
20
8.697980
11
2.541330
21
8.788533
0
LINE
8
Layer 1
10
2.541330
20
8.788533
11
1.951920
21
9.007156
0
LINE
8
Layer 1
10
1.951920
20
9.007156
11
1.951920
21
9.007160
0
LINE
8
Layer 1
10
1.951920
20
9.007160
11
1.961974
21
12.284460
0
LINE
8
Layer 1
10
1.961974
20
12.284460
11
2.551356
21
12.503079
0
LINE
8
Layer 1
10
2.551356
20
12.503079
11
3.974264
21
12.593636
0
LINE
8
Layer 1
10
3.974264
20
12.593636
11
26.109800
21
12.593600
0
LINE
8
Layer 1
10
26.109800
20
12.593600
11
27.532760
21
12.503047
0
LINE
8
Layer 1
10
27.532760
20
12.503047
11
28.122170
21
12.284424
0
LINE
8
Layer 1
10
28.122170
20
12.284424
11
28.112100
21
9.007160
 0 
ENDSEC
 0 
EOF