<?xml version="1.0" encoding="UTF-8" standalone="no"?>
<!-- Created with Inkscape (http://www.inkscape.org/) -->

<svg
   width="210mm"
   height="297mm"
   viewBox="0 0 210 297"
   version="1.1"
   id="svg2329"
   xmlns="http://www.w3.org/2000/svg"
   xmlns:svg="http://www.w3.org/2000/svg">
  <defs
     id="defs2326" />
  <g
     id="layer1">
    <path
       style="fill:none;stroke:#020901;stroke-width:0.254"
       d="m 163.85589,152.5987 -10.88232,0.038 -1.5875,-3.175 -1.5875,3.175 H -25.02301 l -1.5875,-3.175 -1.5875,3.175 -10.88226,-0.038 -0.0452,-10.8897 3.175,-1.5875 -3.175,-1.5875 -0.03,-136.4519 3.175,-1.5875 -3.175,-1.5875 v -9.3716 l 3.175,-1.5875 -3.175,-1.5875 0.0751,-9.4272 3.175,-1.5875 -3.175,-1.5875 -0.007,-162.3933 3.17502,-1.5875 -3.17502,-1.5875 0.007,-10.9274 10.92007,-1e-4 1.5875,3.175 1.5875,-3.175 h 174.74602 l 1.5875,3.175 1.5875,-3.175 10.9201,1e-4 0.007,10.9274 -3.175,1.5875 3.175,1.5875 -0.007,162.3933 -3.17503,1.5875 3.17503,1.5875 0.0751,9.4272 -3.17503,1.5875 3.17503,1.5875 v 9.3716 l -3.17503,1.5875 3.17503,1.5875 -0.03,136.4519 -3.17502,1.5875 3.17502,1.5875 z"
       id="path1674" />
    <path
       style="fill:none;stroke:#020901;stroke-width:0.254"
       d="M -35.98047,-12.052 H 160.75589"
       id="path1676" />
    <path
       style="fill:none;stroke:#020901;stroke-width:0.254"
       d="m 304.12819,101.8162 -1.5875,-3.175 -1.5875,3.175 h -10.92005 l -0.007,-10.9274 3.17502,-1.5875 -3.17502,-1.5875 2e-5,-276.3857 3.17501,-1.5875 -3.17501,-1.5875 0.007,-10.9274 h 10.92005 l 1.5875,3.175 1.5875,-3.175 73.20038,1e-4 1.5875,3.175 1.5875,-3.175 10.92005,-1e-4 0.007,10.9275 -3.175,1.5875 3.175,1.5875 2e-5,276.3857 -3.17502,1.5875 3.17502,1.5875 -0.007,10.9273 -10.92005,1e-4 -1.5875,-2.9593 -1.5875,2.9593 z"
       id="path1836" />
    <path
       style="fill:none;stroke:#020901;stroke-width:0.254"
       d="m 190.64346,101.4587 -1.5875,-3.175 -1.5875,3.175 h -10.92004 l -0.007,-10.9274 3.17502,-1.5875 -3.17502,-1.5875 2e-5,-276.3857 3.17501,-1.5875 -3.17501,-1.5875 0.007,-10.9274 h 10.92004 l 1.5875,3.175 1.5875,-3.175 73.20038,1e-4 1.5875,3.175 1.5875,-3.175 10.92005,-1e-4 0.007,10.9275 -3.175,1.5875 3.175,1.5875 2e-5,276.3857 -3.17502,1.5875 3.17502,1.5875 -0.007,10.9273 -10.92005,1e-4 -1.5875,-2.9593 -1.5875,2.9593 z"
       id="path1836-6" />
    <path
       style="fill:none;stroke:#020901;stroke-width:0.254"
       d="m 423.46565,101.1149 -1.5875,-3.175 -1.5875,3.175 -10.92007,10e-5 -0.007,-10.9275 3.175,-1.5875 -3.175,-1.5875 v -276.4438 l 3.175,-1.5875 -3.175,-1.5875 0.007,-10.9275 h 10.92007 l 1.5875,3.175 1.5875,-3.175 47.8322,0.074 1.5875,3.175 1.5875,-3.175 h 9.18794 l 1.5875,3.175 1.5875,-3.175 -1.5875,3.175 -0.0114,298.2247 0.0114,-298.2247 1.5875,-3.175 9.2243,-0.062 1.49908,2.9981 1.48283,-2.9657 23.06169,-0.024 1.5875,3.175 1.5875,-3.175 10.94063,-0.021 -0.0132,10.948 -2.91587,1.5802 2.91587,1.5948 0.0206,276.4235 -3.175,1.5875 3.175,1.5875 -0.007,10.9273 -10.92004,1e-4 -1.5875,-3.175 -1.5875,3.175 -22.97761,0.035 -1.5875,-3.175 -1.5875,3.175 -9.14739,-0.035 -1.58739,-3.175 -1.58761,3.175 h -9.17643 l -1.5875,-3.175 -1.5875,3.175 z"
       id="path2078" />
    <path
       style="fill:none;stroke:#020901;stroke-width:0.254"
       d="m 567.03585,103.8278 -1.5875,-3.175 -1.5875,3.175 -10.92007,1e-4 -0.007,-10.9275 3.175,-1.5875 -3.175,-1.5875 v -276.4438 l 3.175,-1.5875 -3.175,-1.5875 0.007,-10.9275 h 10.92007 l 1.5875,3.175 1.5875,-3.175 47.8322,0.074 1.5875,3.175 1.5875,-3.175 h 9.18794 l 1.5875,3.175 1.5875,-3.175 -1.5875,3.175 -0.0114,298.2247 0.0114,-298.2247 1.5875,-3.175 9.2243,-0.062 1.49908,2.9981 1.48283,-2.9657 23.06169,-0.024 1.5875,3.175 1.5875,-3.175 10.94063,-0.021 -0.0132,10.948 -2.91587,1.5802 2.91587,1.5948 0.0206,276.4235 -3.175,1.5875 3.175,1.5875 -0.007,10.9273 -10.92004,1e-4 -1.5875,-3.175 -1.5875,3.175 -22.97761,0.035 -1.5875,-3.175 -1.5875,3.175 -9.14739,-0.035 -1.58739,-3.175 -1.58761,3.175 h -9.17643 l -1.5875,-3.175 -1.5875,3.175 z"
       id="path2078-7" />
    <path
       style="fill:none;stroke:#020901;stroke-width:0.254"
       d="m -258.17785,-188.9163 3.175,-1.5876 -3.175,-1.5875 0.01,-10.9274 h 10.9201 l 1.5875,3.175 1.5875,-3.175 h 174.8456 l 1.5875,3.175 1.5875,-3.175 h 10.9201 l 0.01,10.9274 -3.175,1.5875 3.175,1.5876 1e-4,301.8308 -3.1749,1.5875 3.1749,1.5875 -0.01,10.9275 h -10.92 l -1.5875,-3.175 -1.5875,3.175 h -174.8458 l -1.5875,-3.175 -1.5875,3.175 h -10.92 l -0.01,-10.9275 3.175,-1.5875 -3.175,-1.5875 z"
       id="path2202" />
    <path
       style="fill:none;stroke:#020901;stroke-width:0.254"
       d="m -462.10376,127.426 -1.5875,-3.175 -1.5875,3.175 h -10.92006 l -0.007,-10.9274 3.175,-1.5875 -3.175,-1.5875 -6e-5,-162.1609 3.175,-1.5875 -3.175,-1.5875 0.007,-10.9275 10.92002,10e-5 1.5875,3.175 1.5875,-3.175 174.84666,-0.029 1.5875,3.175 1.5875,-3.175 h 10.91999 l 0.007,10.9277 -3.175,1.5875 3.175,1.5875 -5e-5,162.1609 -3.175,1.5875 3.175,1.5875 -0.007,10.9272 -10.92004,2e-4 -1.5875,-3.175 -1.5875,3.175 z"
       id="path2308" />
  </g>
</svg>
