<?xml version="1.0" encoding="UTF-8" standalone="no"?>
<!-- Created with Inkscape (http://www.inkscape.org/) -->

<svg
   width="210mm"
   height="297mm"
   viewBox="0 0 210 297"
   version="1.1"
   id="svg1"
   inkscape:version="1.4.2 (2aeb623e1d, 2025-05-12)"
   sodipodi:docname="SPBA.svg"
   xmlns:inkscape="http://www.inkscape.org/namespaces/inkscape"
   xmlns:sodipodi="http://sodipodi.sourceforge.net/DTD/sodipodi-0.dtd"
   xmlns="http://www.w3.org/2000/svg"
   xmlns:svg="http://www.w3.org/2000/svg">
  <sodipodi:namedview
     id="namedview1"
     pagecolor="#ffffff"
     bordercolor="#000000"
     borderopacity="0.25"
     inkscape:showpageshadow="2"
     inkscape:pageopacity="0.0"
     inkscape:pagecheckerboard="0"
     inkscape:deskcolor="#d1d1d1"
     inkscape:document-units="mm"
     inkscape:zoom="0.42432226"
     inkscape:cx="272.19878"
     inkscape:cy="701.11807"
     inkscape:window-width="1868"
     inkscape:window-height="1131"
     inkscape:window-x="0"
     inkscape:window-y="0"
     inkscape:window-maximized="1"
     inkscape:current-layer="layer1" />
  <defs
     id="defs1" />
  <g
     inkscape:label="Layer 1"
     inkscape:groupmode="layer"
     id="layer1">
    <path
       style="vector-effect:non-scaling-stroke;fill:none;stroke:#ea0e27;stroke-width:0.264583;-inkscape-stroke:hairline;paint-order:markers stroke fill"
       d="M -94.515637,85.000009 H 210.28435 V 212.00003 H 57.884353 L 7.0843535,186.60002 H -94.515647 Z"
       id="path3-3-1-2" />
    <path
       id="rect4-3-0"
       style="vector-effect:non-scaling-stroke;fill:none;stroke:#ea0e27;stroke-width:0.13391;-inkscape-stroke:hairline;paint-order:markers stroke fill"
       d="m 57.884363,110.4 h 25.4 v 25.4 h -25.4 z m 38.1,0 h 25.399997 v 25.4 H 95.984363 Z m 38.099997,0 h 25.4 v 25.4 h -25.4 z m 38.1,0 h 25.4 v 25.4 h -25.4 z M 57.884363,161.2 h 25.4 v 25.4 h -25.4 z m 38.1,0 h 25.399997 v 25.4 H 95.984363 Z m 38.099997,0 h 25.4 v 25.4 h -25.4 z m 38.1,0 h 25.4 v 25.4 h -25.4 z" />
    <path
       id="path7-9"
       style="vector-effect:non-scaling-stroke;fill:none;stroke:#ea0e27;stroke-width:0.142156;-inkscape-stroke:hairline;paint-order:markers stroke fill"
       d="m 32.484363,97.700029 6.35,3.175001 v 6.35 l -6.35,3.175 -6.35,-3.175 v -6.35 z m 0,38.100001 6.35,3.175 v 6.34999 l -6.35,3.175 -6.35,-3.175 v -6.34999 z m 0,38.09999 6.35,3.175 v 6.35 l -6.35,3.175 -6.35,-3.175 v -6.35 z" />
  </g>
</svg>
