<?xml version="1.0" encoding="UTF-8" standalone="no"?>
<!-- Created with Inkscape (http://www.inkscape.org/) -->

<svg
   width="210mm"
   height="297mm"
   viewBox="0 0 210 297"
   version="1.1"
   id="svg89918"
   inkscape:version="1.2.1 (9c6d41e4, 2022-07-14)"
   sodipodi:docname="molle.back.methods.svg"
   xmlns:inkscape="http://www.inkscape.org/namespaces/inkscape"
   xmlns:sodipodi="http://sodipodi.sourceforge.net/DTD/sodipodi-0.dtd"
   xmlns="http://www.w3.org/2000/svg"
   xmlns:svg="http://www.w3.org/2000/svg">
  <sodipodi:namedview
     id="namedview89920"
     pagecolor="#ffffff"
     bordercolor="#000000"
     borderopacity="0.25"
     inkscape:showpageshadow="2"
     inkscape:pageopacity="0.0"
     inkscape:pagecheckerboard="0"
     inkscape:deskcolor="#d1d1d1"
     inkscape:document-units="mm"
     showgrid="false"
     inkscape:zoom="0.32346812"
     inkscape:cx="-126.75129"
     inkscape:cy="387.98259"
     inkscape:window-width="1390"
     inkscape:window-height="1205"
     inkscape:window-x="76"
     inkscape:window-y="22"
     inkscape:window-maximized="0"
     inkscape:current-layer="layer1" />
  <defs
     id="defs89915">
    <inkscape:path-effect
       effect="tiling"
       id="path-effect88952"
       is_visible="true"
       lpeversion="1"
       unit="mm"
       seed="1;1"
       lpesatellites=""
       num_rows="6"
       num_cols="6"
       gapx="13"
       gapy="25"
       offset="0"
       offset_type="false"
       scale="0"
       rotate="0"
       mirrorrowsx="false"
       mirrorrowsy="false"
       mirrorcolsx="false"
       mirrorcolsy="false"
       mirrortrans="false"
       shrink_interp="false"
       split_items="false"
       link_styles="false"
       interpolate_scalex="false"
       interpolate_scaley="true"
       interpolate_rotatex="false"
       interpolate_rotatey="true"
       random_scale="false"
       random_rotate="false"
       random_gap_y="false"
       random_gap_x="false"
       transformorigin="" />
    <inkscape:path-effect
       effect="tiling"
       id="path-effect89710"
       is_visible="true"
       lpeversion="1"
       unit="mm"
       seed="1;1"
       lpesatellites=""
       num_rows="11"
       num_cols="6"
       gapx="13"
       gapy="25"
       offset="0"
       offset_type="false"
       scale="0"
       rotate="0"
       mirrorrowsx="false"
       mirrorrowsy="false"
       mirrorcolsx="false"
       mirrorcolsy="false"
       mirrortrans="false"
       shrink_interp="false"
       split_items="false"
       link_styles="false"
       interpolate_scalex="false"
       interpolate_scaley="true"
       interpolate_rotatex="false"
       interpolate_rotatey="true"
       random_scale="false"
       random_rotate="false"
       random_gap_y="false"
       random_gap_x="false"
       transformorigin="" />
  </defs>
  <g
     inkscape:label="Layer 1"
     inkscape:groupmode="layer"
     id="layer1">
    <g
       id="g807-0-9"
       transform="matrix(0.26458333,0,0,0.26458333,-657.67948,60.502688)"
       style="display:inline">
      <path
         style="fill:none;stroke:#4c7298;stroke-width:1.07103;stroke-dasharray:none"
         d="m 1996.073,-449.85539 h 472.698"
         id="path236-9-1-6" />
      <path
         style="fill:none;stroke:#4c7298;stroke-width:0.96;stroke-dasharray:none"
         d="m 2516.9557,-640.52 h 284.8208"
         id="path239-4-5-0" />
      <path
         style="fill:none;stroke:#4c7298;stroke-width:0.96;stroke-dasharray:none"
         d="M 2801.7765,-640.52 V 837.11688"
         id="path240-7-9-4" />
      <path
         style="fill:none;stroke:#4c7298;stroke-width:0.96;stroke-dasharray:none"
         d="m 2801.7765,837.11688 -94.9359,333.65962"
         id="path241-7-7-2" />
      <path
         style="fill:none;stroke:#4c7298;stroke-width:0.96;stroke-dasharray:none"
         d="M 2706.8406,1170.7765 H 1757.4291"
         id="path242-5-0-3" />
      <path
         style="fill:none;stroke:#4c7298;stroke-width:0.96;stroke-dasharray:none"
         d="M 1757.4291,1170.7765 1662.48,837.11688"
         id="path243-4-6-3" />
      <path
         style="fill:none;stroke:#4c7298;stroke-width:0.96;stroke-dasharray:none"
         d="M 1662.48,837.11688 V -640.52"
         id="path244-8-2-7" />
      <path
         style="fill:none;stroke:#4c7298;stroke-width:0.96;stroke-dasharray:none"
         d="m 1662.48,-640.52 h 284.8208"
         id="path245-1-89-0" />
      <path
         style="fill:none;stroke:#4c7298;stroke-width:1.17493;stroke-dasharray:none"
         d="m 1947.3008,-640.52 v 142.78902"
         id="path246-2-50-0" />
      <path
         d="m 1804.8944,1123.1108 h 854.4743 V 932.44808 h -854.4743 z"
         style="fill:none;stroke:#ff7f00;stroke-width:0.96;stroke-dasharray:none"
         id="path247-8-2-1" />
      <path
         style="fill:none;stroke:#000000;stroke-width:0.978438;stroke-dasharray:none"
         d="m 1947.1933,-497.73098 c 0,47.87559 48.8797,47.87559 48.8797,47.87559"
         id="path806-7-0" />
      <path
         style="fill:none;stroke:#4c7298;stroke-width:1.17493;stroke-dasharray:none"
         d="m 2517.5432,-640.04 v 142.789"
         id="path246-2-5-2-3" />
      <path
         style="fill:none;stroke:#000000;stroke-width:0.974041;stroke-dasharray:none"
         d="m 2517.6518,-497.24989 c 0,47.4441 -48.8819,47.4441 -48.8819,47.4441"
         id="path806-1-8-0" />
    </g>
    <path
       style="fill:none;stroke:#050505;stroke-width:0.0606426"
       id="rect88950"
       width="25.339357"
       height="25.339357"
       x="516.85278"
       y="-491.99606"
       inkscape:path-effect="#path-effect88952"
       class="UnoptimicedTransforms"
       d="m 516.85278,-491.99606 h 25.33936 v 25.33935 h -25.33936 z m 38.33936,0 h 25.33936 v 25.33935 h -25.33936 z m 38.33936,0 h 25.33936 v 25.33935 H 593.5315 Z m 38.33936,0 h 25.33935 v 25.33935 h -25.33935 z m 38.33935,0 h 25.33936 v 25.33935 h -25.33936 z m 38.33936,0 h 25.33936 v 25.33935 h -25.33936 z m -191.69679,50.33935 h 25.33936 v 25.33936 h -25.33936 z m 38.33936,0 h 25.33936 v 25.33936 h -25.33936 z m 38.33936,0 h 25.33936 v 25.33936 H 593.5315 Z m 38.33936,0 h 25.33935 v 25.33936 h -25.33935 z m 38.33935,0 h 25.33936 v 25.33936 h -25.33936 z m 38.33936,0 h 25.33936 v 25.33936 h -25.33936 z m -191.69679,50.33936 h 25.33936 v 25.33936 h -25.33936 z m 38.33936,0 h 25.33936 v 25.33936 h -25.33936 z m 38.33936,0 h 25.33936 v 25.33936 H 593.5315 Z m 38.33936,0 h 25.33935 v 25.33936 h -25.33935 z m 38.33935,0 h 25.33936 v 25.33936 h -25.33936 z m 38.33936,0 h 25.33936 v 25.33936 h -25.33936 z m -191.69679,50.33936 h 25.33936 v 25.33936 h -25.33936 z m 38.33936,0 h 25.33936 v 25.33936 h -25.33936 z m 38.33936,0 h 25.33936 v 25.33936 H 593.5315 Z m 38.33936,0 h 25.33935 v 25.33936 h -25.33935 z m 38.33935,0 h 25.33936 v 25.33936 h -25.33936 z m 38.33936,0 h 25.33936 v 25.33936 h -25.33936 z m -191.69679,50.33936 h 25.33936 v 25.33935 h -25.33936 z m 38.33936,0 h 25.33936 v 25.33935 h -25.33936 z m 38.33936,0 h 25.33936 v 25.33935 H 593.5315 Z m 38.33936,0 h 25.33935 v 25.33935 h -25.33935 z m 38.33935,0 h 25.33936 v 25.33935 h -25.33936 z m 38.33936,0 h 25.33936 v 25.33935 h -25.33936 z m -191.69679,50.33935 h 25.33936 v 25.33936 h -25.33936 z m 38.33936,0 h 25.33936 v 25.33936 h -25.33936 z m 38.33936,0 h 25.33936 v 25.33936 H 593.5315 Z m 38.33936,0 h 25.33935 v 25.33936 h -25.33935 z m 38.33935,0 h 25.33936 v 25.33936 h -25.33936 z m 38.33936,0 h 25.33936 v 25.33936 h -25.33936 z"
       sodipodi:type="rect"
       transform="translate(-321.13801,458.85561)" />
    <g
       id="g807-0-9-4"
       transform="matrix(0.26458333,0,0,0.26458333,-286.35108,60.629688)"
       style="display:inline">
      <path
         style="fill:none;stroke:#4c7298;stroke-width:1.07103;stroke-dasharray:none"
         d="m 1996.073,-449.85539 h 472.698"
         id="path236-9-1-6-4" />
      <path
         style="fill:none;stroke:#4c7298;stroke-width:0.96;stroke-dasharray:none"
         d="m 2516.9557,-640.52 h 284.8208"
         id="path239-4-5-0-5" />
      <path
         style="fill:none;stroke:#4c7298;stroke-width:0.96;stroke-dasharray:none"
         d="M 2801.7765,-640.52 V 837.11688"
         id="path240-7-9-4-8" />
      <path
         style="fill:none;stroke:#4c7298;stroke-width:0.96;stroke-dasharray:none"
         d="m 2801.7765,837.11688 -94.9359,333.65962"
         id="path241-7-7-2-3" />
      <path
         style="fill:none;stroke:#4c7298;stroke-width:0.96;stroke-dasharray:none"
         d="M 2706.8406,1170.7765 H 1757.4291"
         id="path242-5-0-3-0" />
      <path
         style="fill:none;stroke:#4c7298;stroke-width:0.96;stroke-dasharray:none"
         d="M 1757.4291,1170.7765 1662.48,837.11688"
         id="path243-4-6-3-5" />
      <path
         style="fill:none;stroke:#4c7298;stroke-width:0.96;stroke-dasharray:none"
         d="M 1662.48,837.11688 V -640.52"
         id="path244-8-2-7-5" />
      <path
         style="fill:none;stroke:#4c7298;stroke-width:0.96;stroke-dasharray:none"
         d="m 1662.48,-640.52 h 284.8208"
         id="path245-1-89-0-9" />
      <path
         style="fill:none;stroke:#4c7298;stroke-width:1.17493;stroke-dasharray:none"
         d="m 1947.3008,-640.52 v 142.78902"
         id="path246-2-50-0-4" />
      <path
         d="m 1804.8944,1123.1108 h 854.4743 V 932.44808 h -854.4743 z"
         style="fill:none;stroke:#ff7f00;stroke-width:0.96;stroke-dasharray:none"
         id="path247-8-2-1-8" />
      <path
         style="fill:none;stroke:#000000;stroke-width:0.978438;stroke-dasharray:none"
         d="m 1947.1933,-497.73098 c 0,47.87559 48.8797,47.87559 48.8797,47.87559"
         id="path806-7-0-9" />
      <path
         style="fill:none;stroke:#4c7298;stroke-width:1.17493;stroke-dasharray:none"
         d="m 2517.5432,-640.04 v 142.789"
         id="path246-2-5-2-3-3" />
      <path
         style="fill:none;stroke:#000000;stroke-width:0.974041;stroke-dasharray:none"
         d="m 2517.6518,-497.24989 c 0,47.4441 -48.8819,47.4441 -48.8819,47.4441"
         id="path806-1-8-0-3" />
    </g>
    <path
       style="fill:none;stroke:#050505;stroke-width:0.0621829"
       id="rect89708"
       width="27.937817"
       height="3.9378161"
       x="-763.8515"
       y="-53.307201"
       inkscape:path-effect="#path-effect89710"
       class="UnoptimicedTransforms"
       d="m -763.8515,-53.307201 h 27.93782 v 3.937816 h -27.93782 z m 40.93782,0 h 27.93781 v 3.937816 h -27.93781 z m 40.93781,0 h 27.93782 v 3.937816 h -27.93782 z m 40.93782,0 h 27.93782 v 3.937816 h -27.93782 z m 40.93782,0 h 27.93781 v 3.937816 h -27.93781 z m 40.93781,0 h 27.93782 v 3.937816 h -27.93782 z m -204.68908,28.937816 h 27.93782 v 3.937816 h -27.93782 z m 40.93782,0 h 27.93781 v 3.937816 h -27.93781 z m 40.93781,0 h 27.93782 v 3.937816 h -27.93782 z m 40.93782,0 h 27.93782 v 3.937816 h -27.93782 z m 40.93782,0 h 27.93781 v 3.937816 h -27.93781 z m 40.93781,0 h 27.93782 v 3.937816 h -27.93782 z M -763.8515,4.5684309 h 27.93782 V 8.506247 h -27.93782 z m 40.93782,0 h 27.93781 V 8.506247 h -27.93781 z m 40.93781,0 h 27.93782 V 8.506247 h -27.93782 z m 40.93782,0 h 27.93782 V 8.506247 h -27.93782 z m 40.93782,0 h 27.93781 V 8.506247 h -27.93781 z m 40.93781,0 h 27.93782 V 8.506247 h -27.93782 z M -763.8515,33.506247 h 27.93782 v 3.937816 h -27.93782 z m 40.93782,0 h 27.93781 v 3.937816 h -27.93781 z m 40.93781,0 h 27.93782 v 3.937816 h -27.93782 z m 40.93782,0 h 27.93782 v 3.937816 h -27.93782 z m 40.93782,0 h 27.93781 v 3.937816 h -27.93781 z m 40.93781,0 h 27.93782 v 3.937816 h -27.93782 z M -763.8515,62.444063 h 27.93782 v 3.937816 h -27.93782 z m 40.93782,0 h 27.93781 v 3.937816 h -27.93781 z m 40.93781,0 h 27.93782 v 3.937816 h -27.93782 z m 40.93782,0 h 27.93782 v 3.937816 h -27.93782 z m 40.93782,0 h 27.93781 v 3.937816 h -27.93781 z m 40.93781,0 h 27.93782 v 3.937816 h -27.93782 z M -763.8515,91.381879 h 27.93782 v 3.937816 h -27.93782 z m 40.93782,0 h 27.93781 v 3.937816 h -27.93781 z m 40.93781,0 h 27.93782 v 3.937816 h -27.93782 z m 40.93782,0 h 27.93782 v 3.937816 h -27.93782 z m 40.93782,0 h 27.93781 v 3.937816 h -27.93781 z m 40.93781,0 h 27.93782 v 3.937816 h -27.93782 z M -763.8515,120.3197 h 27.93782 v 3.93781 h -27.93782 z m 40.93782,0 h 27.93781 v 3.93781 h -27.93781 z m 40.93781,0 h 27.93782 v 3.93781 h -27.93782 z m 40.93782,0 h 27.93782 v 3.93781 h -27.93782 z m 40.93782,0 h 27.93781 v 3.93781 h -27.93781 z m 40.93781,0 h 27.93782 v 3.93781 h -27.93782 z m -204.68908,28.93781 h 27.93782 v 3.93782 h -27.93782 z m 40.93782,0 h 27.93781 v 3.93782 h -27.93781 z m 40.93781,0 h 27.93782 v 3.93782 h -27.93782 z m 40.93782,0 h 27.93782 v 3.93782 h -27.93782 z m 40.93782,0 h 27.93781 v 3.93782 h -27.93781 z m 40.93781,0 h 27.93782 v 3.93782 h -27.93782 z m -204.68908,28.93782 h 27.93782 v 3.93781 h -27.93782 z m 40.93782,0 h 27.93781 v 3.93781 h -27.93781 z m 40.93781,0 h 27.93782 v 3.93781 h -27.93782 z m 40.93782,0 h 27.93782 v 3.93781 h -27.93782 z m 40.93782,0 h 27.93781 v 3.93781 h -27.93781 z m 40.93781,0 h 27.93782 v 3.93781 h -27.93782 z m -204.68908,28.93781 h 27.93782 v 3.93782 h -27.93782 z m 40.93782,0 h 27.93781 v 3.93782 h -27.93781 z m 40.93781,0 h 27.93782 v 3.93782 h -27.93782 z m 40.93782,0 h 27.93782 v 3.93782 h -27.93782 z m 40.93782,0 h 27.93781 v 3.93782 h -27.93781 z m 40.93781,0 h 27.93782 v 3.93782 h -27.93782 z m -204.68908,28.93782 h 27.93782 v 3.93782 h -27.93782 z m 40.93782,0 h 27.93781 v 3.93782 h -27.93781 z m 40.93781,0 h 27.93782 v 3.93782 h -27.93782 z m 40.93782,0 h 27.93782 v 3.93782 h -27.93782 z m 40.93782,0 h 27.93781 v 3.93782 h -27.93781 z m 40.93781,0 h 27.93782 v 3.93782 h -27.93782 z"
       sodipodi:type="rect"
       transform="translate(580.4425,20.190129)" />
  </g>
</svg>
