<?xml version="1.0" encoding="UTF-8" standalone="no"?>
<!-- Created with Inkscape (http://www.inkscape.org/) -->

<svg
   width="210mm"
   height="297mm"
   viewBox="0 0 210 297"
   version="1.1"
   id="svg673"
   xmlns="http://www.w3.org/2000/svg"
   xmlns:svg="http://www.w3.org/2000/svg">
  <defs
     id="defs670" />
  <g
     id="layer1">
    <path
       style="fill:none;stroke:#020901;stroke-width:0.254"
       d="m -36.977381,173.0308 3.175,-1.5875 -3.175,-1.58751 v -10.92743 h 10.92743 l 1.5875,3.17501 1.5875,-3.17501 250.736831,0.14379 1.5875,3.17501 1.5875,-3.17501 11.07128,-0.14379 -0.14385,11.07122 -3.175,1.58751 3.175,1.5875 0.20851,123.80155 -3.175,1.5875 3.175,1.58751 -0.0647,10.86274 -10.86277,0.0647 -1.5875,-3.17501 -1.5875,3.17501 H -22.939691 l -1.5875,-3.17501 -1.5875,3.17501 -10.86273,-0.0647 -0.0647,-10.86274 3.175,-1.58751 -3.175,-1.5875 z"
       id="path524" />
    <path
       style="fill:none;stroke:#020901;stroke-width:0.254"
       d="m -25.301911,140.71995 h -10.92006 l -0.007,-10.92742 3.175,-1.5875 -3.175,-1.5875 -0.0462,-47.75655 3.175,-1.5875 -3.175,-1.5875 0.0535,-10.88128 10.8739,-0.0462 1.5875,3.175 1.5875,-3.175 250.971291,0.0462 1.5875,3.175 1.5875,-3.175 10.92007,-2e-5 0.007,10.92745 -3.175,1.5875 3.175,1.5875 0.0462,47.75649 -3.175,1.5875 3.175,1.5875 -0.0535,10.88131 -10.8739,0.0461 -1.5875,-3.175 -1.5875,3.175 -250.971311,-0.0461 -1.5875,-3.175 z"
       id="path635" />
    <path
       style="fill:none;stroke:#020901;stroke-width:0.254"
       d="m -25.773801,49.44747 h -10.92006 l -0.007,-10.92742 3.175,-1.5875 -3.175,-1.5875 -0.0462,-47.75655 3.175,-1.5875 -3.175,-1.5875 0.0535,-10.88128 10.8739,-0.0462 1.5875,3.175 1.5875,-3.175 250.971291,0.0462 1.5875,3.175 1.5875,-3.175 10.92007,-2e-5 0.007,10.92745 -3.175,1.5875 3.175,1.5875 0.0462,47.75649 -3.175,1.5875 3.175,1.5875 -0.0535,10.88131 -10.8739,0.0461 -1.5875,-3.175 -1.5875,3.175 -250.971311,-0.0461 -1.5875,-3.175 z"
       id="path635-6" />
  </g>
</svg>
